Benzinova-ExtraLight-ExtraCondensed.ufo
<glyph name="dollar" format="1">
  <advance width="616.0"/>
  <unicode hex="0024"/>
  <outline>
    <contour>
      <point x="294" y="1139" type="line" smooth="yes"/>
      <point x="294" y="1130"/>
      <point x="301" y="1123"/>
      <point x="310" y="1123" type="curve" smooth="yes"/>
      <point x="319" y="1123"/>
      <point x="326" y="1130"/>
      <point x="326" y="1139" type="curve" smooth="yes"/>
      <point x="326" y="1200" type="line" smooth="yes"/>
      <point x="326" y="1209"/>
      <point x="319" y="1216"/>
      <point x="310" y="1216" type="curve" smooth="yes"/>
      <point x="301" y="1216"/>
      <point x="294" y="1209"/>
      <point x="294" y="1200" type="curve" smooth="yes"/>
    </contour>
    <contour>
      <point x="294" y="0" type="line" smooth="yes"/>
      <point x="294" y="-9"/>
      <point x="301" y="-16"/>
      <point x="310" y="-16" type="curve" smooth="yes"/>
      <point x="319" y="-16"/>
      <point x="326" y="-9"/>
      <point x="326" y="0" type="curve" smooth="yes"/>
      <point x="326" y="61" type="line" smooth="yes"/>
      <point x="326" y="70"/>
      <point x="319" y="77"/>
      <point x="310" y="77" type="curve" smooth="yes"/>
      <point x="301" y="77"/>
      <point x="294" y="70"/>
      <point x="294" y="61" type="curve" smooth="yes"/>
    </contour>
    <contour>
      <point x="507" y="924" type="curve" smooth="yes"/>
      <point x="507" y="915"/>
      <point x="514" y="908"/>
      <point x="523" y="908" type="curve" smooth="yes"/>
      <point x="532" y="908"/>
      <point x="539" y="915"/>
      <point x="539" y="924" type="curve" smooth="yes"/>
      <point x="539" y="1050"/>
      <point x="437" y="1152"/>
      <point x="311" y="1152" type="curve" smooth="yes"/>
      <point x="311" y="1152"/>
      <point x="308" y="1152"/>
      <point x="308" y="1152" type="curve" smooth="yes"/>
      <point x="182" y="1152"/>
      <point x="80" y="1050"/>
      <point x="80" y="924" type="curve" smooth="yes"/>
      <point x="80" y="889" type="line" smooth="yes"/>
      <point x="80" y="763"/>
      <point x="182" y="661"/>
      <point x="308" y="661" type="curve" smooth="yes"/>
      <point x="308" y="661"/>
      <point x="310" y="661"/>
      <point x="310" y="661" type="curve" smooth="yes"/>
      <point x="418" y="661"/>
      <point x="506" y="573"/>
      <point x="506" y="465" type="curve" smooth="yes"/>
      <point x="506" y="286" type="line" smooth="yes"/>
      <point x="506" y="178"/>
      <point x="418" y="90"/>
      <point x="310" y="90" type="curve" smooth="yes"/>
      <point x="308" y="90" type="line" smooth="yes"/>
      <point x="200" y="90"/>
      <point x="112" y="178"/>
      <point x="112" y="286" type="curve" smooth="yes"/>
      <point x="112" y="295"/>
      <point x="105" y="302"/>
      <point x="96" y="302" type="curve" smooth="yes"/>
      <point x="87" y="302"/>
      <point x="80" y="295"/>
      <point x="80" y="286" type="curve" smooth="yes"/>
      <point x="80" y="160"/>
      <point x="182" y="58"/>
      <point x="308" y="58" type="curve" smooth="yes"/>
      <point x="310" y="58" type="line" smooth="yes"/>
      <point x="436" y="58"/>
      <point x="538" y="160"/>
      <point x="538" y="286" type="curve" smooth="yes"/>
      <point x="538" y="465" type="line" smooth="yes"/>
      <point x="538" y="591"/>
      <point x="436" y="693"/>
      <point x="310" y="693" type="curve" smooth="yes"/>
      <point x="310" y="693"/>
      <point x="308" y="693"/>
      <point x="308" y="693" type="curve" smooth="yes"/>
      <point x="200" y="693"/>
      <point x="112" y="781"/>
      <point x="112" y="889" type="curve" smooth="yes"/>
      <point x="112" y="924" type="line" smooth="yes"/>
      <point x="112" y="1032"/>
      <point x="200" y="1120"/>
      <point x="308" y="1120" type="curve" smooth="yes"/>
      <point x="308" y="1120"/>
      <point x="311" y="1120"/>
      <point x="311" y="1120" type="curve" smooth="yes"/>
      <point x="419" y="1120"/>
      <point x="507" y="1032"/>
    </contour>
  </outline>
</glyph>
<glyph name="quotesingle" format="1">
  <advance width="192.0"/>
  <unicode hex="0027"/>
  <outline>
    <contour>
      <point x="96" y="1114" type="curve" smooth="yes"/>
      <point x="104" y="1114"/>
      <point x="112" y="1122"/>
      <point x="112" y="1130" type="curve" smooth="yes"/>
      <point x="112" y="1256" type="line" smooth="yes"/>
      <point x="112" y="1264"/>
      <point x="104" y="1272"/>
      <point x="96" y="1272" type="curve" smooth="yes"/>
      <point x="88" y="1272"/>
      <point x="80" y="1264"/>
      <point x="80" y="1256" type="curve" smooth="yes"/>
      <point x="80" y="1130" type="line" smooth="yes"/>
      <point x="80" y="1122"/>
      <point x="88" y="1114"/>
    </contour>
  </outline>
</glyph>
<glyph name="parenright" format="1">
  <advance width="409"/>
  <unicode hex="0029"/>
  <outline>
    <contour>
      <point x="85" y="1207" type="curve" smooth="yes"/>
      <point x="218" y="1040"/>
      <point x="297" y="828"/>
      <point x="297" y="600" type="curve" smooth="yes"/>
      <point x="297" y="372"/>
      <point x="218" y="161"/>
      <point x="86" y="-6" type="curve" smooth="yes"/>
      <point x="81" y="-13"/>
      <point x="82" y="-23"/>
      <point x="89" y="-29" type="curve" smooth="yes"/>
      <point x="96" y="-34"/>
      <point x="106" y="-33"/>
      <point x="112" y="-26" type="curve" smooth="yes"/>
      <point x="248" y="147"/>
      <point x="329" y="364"/>
      <point x="329" y="600" type="curve" smooth="yes"/>
      <point x="329" y="836"/>
      <point x="248" y="1054"/>
      <point x="111" y="1227" type="curve" smooth="yes"/>
      <point x="105" y="1234"/>
      <point x="95" y="1235"/>
      <point x="88" y="1230" type="curve" smooth="yes"/>
      <point x="81" y="1224"/>
      <point x="80" y="1214"/>
    </contour>
  </outline>
</glyph>
<glyph name="asterisk" format="1">
  <advance width="366.0"/>
  <unicode hex="002A"/>
  <outline>
    <contour>
      <point x="198" y="1216" type="line" smooth="yes"/>
      <point x="198" y="1225"/>
      <point x="191" y="1232"/>
      <point x="182" y="1232" type="curve" smooth="yes"/>
      <point x="173" y="1232"/>
      <point x="166" y="1225"/>
      <point x="166" y="1216" type="curve" smooth="yes"/>
      <point x="166" y="1016" type="line" smooth="yes"/>
      <point x="166" y="1007"/>
      <point x="173" y="1000"/>
      <point x="182" y="1000" type="curve" smooth="yes"/>
      <point x="191" y="1000"/>
      <point x="198" y="1007"/>
      <point x="198" y="1016" type="curve" smooth="yes"/>
    </contour>
    <contour>
      <point x="103" y="1180" type="line" smooth="yes"/>
      <point x="95" y="1184"/>
      <point x="85" y="1181"/>
      <point x="81" y="1174" type="curve" smooth="yes"/>
      <point x="77" y="1166"/>
      <point x="80" y="1156"/>
      <point x="87" y="1152" type="curve" smooth="yes"/>
      <point x="261" y="1052" type="line" smooth="yes"/>
      <point x="269" y="1048"/>
      <point x="279" y="1051"/>
      <point x="283" y="1058" type="curve" smooth="yes"/>
      <point x="287" y="1066"/>
      <point x="284" y="1076"/>
      <point x="277" y="1080" type="curve" smooth="yes"/>
    </contour>
    <contour>
      <point x="277" y="1152" type="line" smooth="yes"/>
      <point x="284" y="1156"/>
      <point x="287" y="1166"/>
      <point x="283" y="1174" type="curve" smooth="yes"/>
      <point x="279" y="1181"/>
      <point x="269" y="1184"/>
      <point x="261" y="1180" type="curve" smooth="yes"/>
      <point x="87" y="1080" type="line" smooth="yes"/>
      <point x="80" y="1076"/>
      <point x="77" y="1066"/>
      <point x="81" y="1058" type="curve" smooth="yes"/>
      <point x="85" y="1051"/>
      <point x="95" y="1048"/>
      <point x="103" y="1052" type="curve" smooth="yes"/>
    </contour>
  </outline>
</glyph>
<glyph name="five" format="1">
  <advance width="616.0"/>
  <unicode hex="0035"/>
  <outline>
    <contour>
      <point x="112" y="196" type="curve" smooth="yes"/>
      <point x="112" y="205"/>
      <point x="105" y="212"/>
      <point x="96" y="212" type="curve" smooth="yes"/>
      <point x="87" y="212"/>
      <point x="80" y="205"/>
      <point x="80" y="196" type="curve" smooth="yes"/>
      <point x="80" y="71"/>
      <point x="182" y="-32"/>
      <point x="308" y="-32" type="curve" smooth="yes"/>
      <point x="433" y="-32"/>
      <point x="536" y="71"/>
      <point x="536" y="196" type="curve" smooth="yes"/>
      <point x="536" y="486" type="line" smooth="yes"/>
      <point x="536" y="612"/>
      <point x="433" y="714"/>
      <point x="308" y="714" type="curve" smooth="yes"/>
      <point x="97" y="714" type="line"/>
      <point x="113" y="698" type="line"/>
      <point x="112" y="1184" type="line"/>
      <point x="96" y="1168" type="line"/>
      <point x="521" y="1168" type="line" smooth="yes"/>
      <point x="530" y="1168"/>
      <point x="537" y="1175"/>
      <point x="537" y="1184" type="curve" smooth="yes"/>
      <point x="537" y="1193"/>
      <point x="530" y="1200"/>
      <point x="521" y="1200" type="curve" smooth="yes"/>
      <point x="96" y="1200" type="line" smooth="yes"/>
      <point x="87" y="1200"/>
      <point x="80" y="1193"/>
      <point x="80" y="1184" type="curve" smooth="yes"/>
      <point x="81" y="698" type="line" smooth="yes"/>
      <point x="81" y="689"/>
      <point x="88" y="682"/>
      <point x="97" y="682" type="curve" smooth="yes"/>
      <point x="308" y="682" type="line" smooth="yes"/>
      <point x="415" y="682"/>
      <point x="504" y="594"/>
      <point x="504" y="486" type="curve" smooth="yes"/>
      <point x="504" y="196" type="line" smooth="yes"/>
      <point x="504" y="89"/>
      <point x="415" y="0"/>
      <point x="308" y="0" type="curve" smooth="yes"/>
      <point x="200" y="0"/>
      <point x="112" y="89"/>
    </contour>
  </outline>
</glyph>
<glyph name="greater" format="1">
  <advance width="616.0"/>
  <unicode hex="003E"/>
  <outline>
    <contour>
      <point x="111" y="859" type="line" smooth="yes"/>
      <point x="105" y="865"/>
      <point x="95" y="865"/>
      <point x="89" y="859" type="curve" smooth="yes"/>
      <point x="83" y="853"/>
      <point x="83" y="843"/>
      <point x="89" y="837" type="curve" smooth="yes"/>
      <point x="513" y="415" type="line"/>
      <point x="513" y="437" type="line"/>
      <point x="87" y="13" type="line" smooth="yes"/>
      <point x="81" y="7"/>
      <point x="81" y="-3"/>
      <point x="87" y="-9" type="curve" smooth="yes"/>
      <point x="93" y="-15"/>
      <point x="103" y="-15"/>
      <point x="109" y="-9" type="curve" smooth="yes"/>
      <point x="535" y="415" type="line" smooth="yes"/>
      <point x="542" y="421"/>
      <point x="542" y="431"/>
      <point x="535" y="437" type="curve" smooth="yes"/>
    </contour>
  </outline>
</glyph>
<glyph name="at" format="1">
  <advance width="616.0"/>
  <unicode hex="0040"/>
  <outline>
    <contour>
      <point x="463" y="454" type="curve" smooth="yes"/>
      <point x="463" y="463"/>
      <point x="456" y="470"/>
      <point x="447" y="470" type="curve" smooth="yes"/>
      <point x="438" y="470"/>
      <point x="431" y="463"/>
      <point x="431" y="454" type="curve" smooth="yes"/>
      <point x="431" y="387"/>
      <point x="375" y="331"/>
      <point x="308" y="331" type="curve" smooth="yes"/>
      <point x="241" y="331"/>
      <point x="185" y="387"/>
      <point x="185" y="454" type="curve" smooth="yes"/>
      <point x="185" y="596" type="line" smooth="yes"/>
      <point x="185" y="663"/>
      <point x="241" y="719"/>
      <point x="308" y="719" type="curve" smooth="yes"/>
      <point x="375" y="719"/>
      <point x="431" y="663"/>
      <point x="431" y="596" type="curve" smooth="yes"/>
      <point x="432" y="335" type="line"/>
      <point x="432" y="306"/>
      <point x="455" y="283"/>
      <point x="484" y="283" type="curve" smooth="yes"/>
      <point x="513" y="283"/>
      <point x="536" y="306"/>
      <point x="536" y="335" type="curve" smooth="yes"/>
      <point x="536" y="844" type="line" smooth="yes"/>
      <point x="536" y="970"/>
      <point x="434" y="1072"/>
      <point x="308" y="1072" type="curve" smooth="yes"/>
      <point x="182" y="1072"/>
      <point x="80" y="970"/>
      <point x="80" y="844" type="curve" smooth="yes"/>
      <point x="80" y="196" type="line" smooth="yes"/>
      <point x="80" y="70"/>
      <point x="182" y="-32"/>
      <point x="308" y="-32" type="curve" smooth="yes"/>
      <point x="396" y="-32"/>
      <point x="466" y="18"/>
      <point x="505" y="92" type="curve" smooth="yes"/>
      <point x="509" y="99"/>
      <point x="506" y="109"/>
      <point x="498" y="113" type="curve" smooth="yes"/>
      <point x="491" y="117"/>
      <point x="481" y="114"/>
      <point x="477" y="106" type="curve" smooth="yes"/>
      <point x="444" y="44"/>
      <point x="384" y="0"/>
      <point x="308" y="0" type="curve" smooth="yes"/>
      <point x="200" y="0"/>
      <point x="112" y="88"/>
      <point x="112" y="196" type="curve" smooth="yes"/>
      <point x="112" y="844" type="line" smooth="yes"/>
      <point x="112" y="952"/>
      <point x="200" y="1040"/>
      <point x="308" y="1040" type="curve" smooth="yes"/>
      <point x="416" y="1040"/>
      <point x="504" y="952"/>
      <point x="504" y="844" type="curve" smooth="yes"/>
      <point x="504" y="335" type="line" smooth="yes"/>
      <point x="504" y="324"/>
      <point x="495" y="315"/>
      <point x="484" y="315" type="curve" smooth="yes"/>
      <point x="473" y="315"/>
      <point x="464" y="324"/>
      <point x="464" y="335" type="curve" smooth="yes"/>
      <point x="463" y="596" type="line" smooth="yes"/>
      <point x="463" y="681"/>
      <point x="393" y="751"/>
      <point x="308" y="751" type="curve" smooth="yes"/>
      <point x="223" y="751"/>
      <point x="153" y="681"/>
      <point x="153" y="596" type="curve" smooth="yes"/>
      <point x="153" y="454" type="line" smooth="yes"/>
      <point x="153" y="369"/>
      <point x="223" y="299"/>
      <point x="308" y="299" type="curve" smooth="yes"/>
      <point x="393" y="299"/>
      <point x="463" y="369"/>
    </contour>
  </outline>
</glyph>
<glyph name="D" format="1">
  <advance width="616.0"/>
  <unicode hex="0044"/>
  <outline>
    <contour>
      <point x="544" y="964" type="line" smooth="yes"/>
      <point x="544" y="1094"/>
      <point x="438" y="1200"/>
      <point x="308" y="1200" type="curve" smooth="yes"/>
      <point x="88" y="1200" type="line"/>
      <point x="79" y="1200"/>
      <point x="72" y="1193"/>
      <point x="72" y="1184" type="curve" smooth="yes"/>
      <point x="72" y="16" type="line" smooth="yes"/>
      <point x="72" y="7"/>
      <point x="79" y="0"/>
      <point x="88" y="0" type="curve" smooth="yes"/>
      <point x="308" y="0" type="line" smooth="yes"/>
      <point x="438" y="0"/>
      <point x="544" y="106"/>
      <point x="544" y="236" type="curve" smooth="yes"/>
    </contour>
    <contour>
      <point x="496" y="964" type="curve" smooth="yes"/>
      <point x="496" y="236" type="line" smooth="yes"/>
      <point x="496" y="132"/>
      <point x="412" y="48"/>
      <point x="308" y="48" type="curve" smooth="yes"/>
      <point x="96" y="48" type="line"/>
      <point x="120" y="24" type="line"/>
      <point x="120" y="1176" type="line"/>
      <point x="96" y="1152" type="line"/>
      <point x="308" y="1152" type="line"/>
      <point x="412" y="1152"/>
      <point x="496" y="1068"/>
    </contour>
  </outline>
</glyph>
<glyph name="J" format="1">
  <advance width="616.0"/>
  <unicode hex="004A"/>
  <outline>
    <contour>
      <point x="120" y="220" type="curve" smooth="yes"/>
      <point x="120" y="229"/>
      <point x="113" y="236"/>
      <point x="104" y="236" type="curve" smooth="yes"/>
      <point x="88" y="236" type="line" smooth="yes"/>
      <point x="79" y="236"/>
      <point x="72" y="229"/>
      <point x="72" y="220" type="curve" smooth="yes"/>
      <point x="72" y="90"/>
      <point x="178" y="-16"/>
      <point x="308" y="-16" type="curve" smooth="yes"/>
      <point x="438" y="-16"/>
      <point x="544" y="90"/>
      <point x="544" y="220" type="curve" smooth="yes"/>
      <point x="544" y="1184" type="line" smooth="yes"/>
      <point x="544" y="1193"/>
      <point x="537" y="1200"/>
      <point x="528" y="1200" type="curve" smooth="yes"/>
      <point x="308" y="1200" type="line" smooth="yes"/>
      <point x="299" y="1200"/>
      <point x="292" y="1193"/>
      <point x="292" y="1184" type="curve" smooth="yes"/>
      <point x="292" y="1168" type="line" smooth="yes"/>
      <point x="292" y="1159"/>
      <point x="299" y="1152"/>
      <point x="308" y="1152" type="curve" smooth="yes"/>
      <point x="520" y="1152" type="line"/>
      <point x="496" y="1176" type="line" smooth="yes"/>
      <point x="496" y="220" type="line"/>
      <point x="496" y="116"/>
      <point x="412" y="32"/>
      <point x="308" y="32" type="curve" smooth="yes"/>
      <point x="204" y="32"/>
      <point x="120" y="116"/>
    </contour>
  </outline>
</glyph>
<glyph name="K" format="1">
  <advance width="712.0"/>
  <unicode hex="004B"/>
  <note>
  </note>
  <outline>
    <contour>
      <point x="72" y="16" type="line" smooth="yes"/>
      <point x="72" y="7"/>
      <point x="79" y="0"/>
      <point x="88" y="0" type="curve" smooth="yes"/>
      <point x="104" y="0" type="line" smooth="yes"/>
      <point x="113" y="0"/>
      <point x="120" y="7"/>
      <point x="120" y="16" type="curve" smooth="yes"/>
      <point x="120" y="1184" type="line" smooth="yes"/>
      <point x="120" y="1193"/>
      <point x="113" y="1200"/>
      <point x="104" y="1200" type="curve" smooth="yes"/>
      <point x="88" y="1200" type="line" smooth="yes"/>
      <point x="79" y="1200"/>
      <point x="72" y="1193"/>
      <point x="72" y="1184" type="curve" smooth="yes"/>
    </contour>
    <contour>
      <point x="592" y="6" type="line" smooth="yes"/>
      <point x="595" y="3"/>
      <point x="601" y="0"/>
      <point x="605" y="0" type="curve" smooth="yes"/>
      <point x="624" y="0" type="line" smooth="yes"/>
      <point x="637" y="0"/>
      <point x="644" y="15"/>
      <point x="637" y="26" type="curve" smooth="yes"/>
      <point x="144" y="690" type="line" smooth="yes"/>
      <point x="138" y="697"/>
      <point x="128" y="698"/>
      <point x="121" y="692" type="curve" smooth="yes"/>
      <point x="109" y="682" type="line" smooth="yes"/>
      <point x="102" y="677"/>
      <point x="101" y="667"/>
      <point x="106" y="660" type="curve" smooth="yes"/>
    </contour>
    <contour>
      <point x="637" y="1173" type="line" smooth="yes"/>
      <point x="647" y="1182"/>
      <point x="639" y="1200"/>
      <point x="626" y="1200" type="curve" smooth="yes"/>
      <point x="602" y="1200" type="line" smooth="yes"/>
      <point x="598" y="1200"/>
      <point x="593" y="1198"/>
      <point x="591" y="1195" type="curve" smooth="yes"/>
      <point x="85" y="676" type="line" smooth="yes"/>
      <point x="78" y="670"/>
      <point x="79" y="660"/>
      <point x="85" y="654" type="curve" smooth="yes"/>
      <point x="97" y="642" type="line" smooth="yes"/>
      <point x="103" y="635"/>
      <point x="113" y="635"/>
      <point x="119" y="642" type="curve" smooth="yes"/>
    </contour>
  </outline>
</glyph>
<glyph name="L" format="1">
  <advance width="616.0"/>
  <unicode hex="004C"/>
  <outline>
    <contour>
      <point x="88" y="1200" type="line" smooth="yes"/>
      <point x="79" y="1200"/>
      <point x="72" y="1193"/>
      <point x="72" y="1184" type="curve" smooth="yes"/>
      <point x="72" y="16" type="line" smooth="yes"/>
      <point x="72" y="7"/>
      <point x="79" y="0"/>
      <point x="88" y="0" type="curve" smooth="yes"/>
      <point x="520" y="0" type="line" smooth="yes"/>
      <point x="529" y="0"/>
      <point x="536" y="7"/>
      <point x="536" y="16" type="curve" smooth="yes"/>
      <point x="536" y="32" type="line" smooth="yes"/>
      <point x="536" y="41"/>
      <point x="529" y="48"/>
      <point x="520" y="48" type="curve" smooth="yes"/>
      <point x="96" y="48" type="line"/>
      <point x="120" y="24" type="line" smooth="yes"/>
      <point x="120" y="1184" type="line"/>
      <point x="120" y="1193"/>
      <point x="113" y="1200"/>
      <point x="104" y="1200" type="curve" smooth="yes"/>
    </contour>
  </outline>
</glyph>
<glyph name="M" format="1">
  <advance width="616.0"/>
  <unicode hex="004D"/>
  <outline>
    <contour>
      <point x="72" y="16" type="line" smooth="yes"/>
      <point x="72" y="7"/>
      <point x="79" y="0"/>
      <point x="88" y="0" type="curve" smooth="yes"/>
      <point x="104" y="0" type="line" smooth="yes"/>
      <point x="113" y="0"/>
      <point x="120" y="7"/>
      <point x="120" y="16" type="curve" smooth="yes"/>
      <point x="120" y="1134" type="line"/>
      <point x="74" y="1145" type="line"/>
      <point x="289" y="607" type="line"/>
      <point x="291" y="601"/>
      <point x="298" y="597"/>
      <point x="304" y="597" type="curve" smooth="yes"/>
      <point x="312" y="597" type="line" smooth="yes"/>
      <point x="318" y="597"/>
      <point x="325" y="601"/>
      <point x="327" y="607" type="curve" smooth="yes"/>
      <point x="542" y="1145" type="line"/>
      <point x="496" y="1134" type="line"/>
      <point x="496" y="16" type="line"/>
      <point x="496" y="7"/>
      <point x="503" y="0"/>
      <point x="512" y="0" type="curve" smooth="yes"/>
      <point x="528" y="0" type="line" smooth="yes"/>
      <point x="537" y="0"/>
      <point x="544" y="7"/>
      <point x="544" y="16" type="curve" smooth="yes"/>
      <point x="544" y="1193" type="line" smooth="yes"/>
      <point x="544" y="1208"/>
      <point x="519" y="1213"/>
      <point x="513" y="1199" type="curve" smooth="yes"/>
      <point x="286" y="632" type="line"/>
      <point x="330" y="632" type="line" smooth="yes"/>
      <point x="103" y="1199" type="line"/>
      <point x="97" y="1213"/>
      <point x="72" y="1208"/>
      <point x="72" y="1193" type="curve" smooth="yes"/>
    </contour>
  </outline>
</glyph>
<glyph name="N" format="1">
  <advance width="632.0"/>
  <unicode hex="004E"/>
  <outline>
    <contour>
      <point x="72" y="16" type="line" smooth="yes"/>
      <point x="72" y="7"/>
      <point x="79" y="0"/>
      <point x="88" y="0" type="curve" smooth="yes"/>
      <point x="104" y="0" type="line" smooth="yes"/>
      <point x="113" y="0"/>
      <point x="120" y="7"/>
      <point x="120" y="16" type="curve" smooth="yes"/>
      <point x="120" y="1156" type="line"/>
      <point x="74" y="1147" type="line" smooth="yes"/>
      <point x="529" y="-2" type="line"/>
      <point x="535" y="-16"/>
      <point x="560" y="-11"/>
      <point x="560" y="4" type="curve" smooth="yes"/>
      <point x="560" y="1184" type="line" smooth="yes"/>
      <point x="560" y="1193"/>
      <point x="553" y="1200"/>
      <point x="544" y="1200" type="curve" smooth="yes"/>
      <point x="528" y="1200" type="line" smooth="yes"/>
      <point x="519" y="1200"/>
      <point x="512" y="1193"/>
      <point x="512" y="1184" type="curve" smooth="yes"/>
      <point x="512" y="44" type="line"/>
      <point x="558" y="53" type="line" smooth="yes"/>
      <point x="103" y="1202" type="line"/>
      <point x="97" y="1216"/>
      <point x="72" y="1211"/>
      <point x="72" y="1196" type="curve" smooth="yes"/>
    </contour>
  </outline>
</glyph>
<glyph name="O" format="1">
  <advance width="616.0"/>
  <unicode hex="004F"/>
  <outline>
    <contour>
      <point x="72" y="220" type="line" smooth="yes"/>
      <point x="72" y="90"/>
      <point x="178" y="-16"/>
      <point x="308" y="-16" type="curve" smooth="yes"/>
      <point x="438" y="-16"/>
      <point x="544" y="90"/>
      <point x="544" y="220" type="curve" smooth="yes"/>
      <point x="544" y="980" type="line" smooth="yes"/>
      <point x="544" y="1110"/>
      <point x="438" y="1216"/>
      <point x="308" y="1216" type="curve" smooth="yes"/>
      <point x="178" y="1216"/>
      <point x="72" y="1110"/>
      <point x="72" y="980" type="curve" smooth="yes"/>
    </contour>
    <contour>
      <point x="120" y="220" type="curve" smooth="yes"/>
      <point x="120" y="980" type="line" smooth="yes"/>
      <point x="120" y="1084"/>
      <point x="204" y="1168"/>
      <point x="308" y="1168" type="curve" smooth="yes"/>
      <point x="412" y="1168"/>
      <point x="496" y="1084"/>
      <point x="496" y="980" type="curve" smooth="yes"/>
      <point x="496" y="220" type="line" smooth="yes"/>
      <point x="496" y="116"/>
      <point x="412" y="32"/>
      <point x="308" y="32" type="curve" smooth="yes"/>
      <point x="204" y="32"/>
      <point x="120" y="116"/>
    </contour>
  </outline>
</glyph>
<glyph name="P" format="1">
  <advance width="686.0"/>
  <unicode hex="0050"/>
  <outline>
    <contour>
      <point x="109" y="570" type="line" smooth="yes"/>
      <point x="100" y="570"/>
      <point x="93" y="563"/>
      <point x="93" y="554" type="curve" smooth="yes"/>
      <point x="93" y="538" type="line" smooth="yes"/>
      <point x="93" y="529"/>
      <point x="100" y="522"/>
      <point x="109" y="522" type="curve" smooth="yes"/>
      <point x="285" y="522" type="line" smooth="yes"/>
      <point x="471" y="522"/>
      <point x="624" y="675"/>
      <point x="624" y="861" type="curve" smooth="yes"/>
      <point x="624" y="1047"/>
      <point x="471" y="1200"/>
      <point x="285" y="1200" type="curve" smooth="yes"/>
      <point x="88" y="1200" type="line" smooth="yes"/>
      <point x="79" y="1200"/>
      <point x="72" y="1193"/>
      <point x="72" y="1184" type="curve" smooth="yes"/>
      <point x="72" y="16" type="line" smooth="yes"/>
      <point x="72" y="7"/>
      <point x="79" y="0"/>
      <point x="88" y="0" type="curve" smooth="yes"/>
      <point x="104" y="0" type="line" smooth="yes"/>
      <point x="113" y="0"/>
      <point x="120" y="7"/>
      <point x="120" y="16" type="curve" smooth="yes"/>
      <point x="120" y="1176" type="line"/>
      <point x="96" y="1152" type="line" smooth="yes"/>
      <point x="285" y="1152" type="line"/>
      <point x="445" y="1152"/>
      <point x="576" y="1021"/>
      <point x="576" y="861" type="curve" smooth="yes"/>
      <point x="576" y="701"/>
      <point x="445" y="570"/>
      <point x="285" y="570" type="curve" smooth="yes"/>
    </contour>
  </outline>
</glyph>
<glyph name="Q" format="1">
  <advance width="616.0"/>
  <unicode hex="0051"/>
  <outline>
    <contour>
      <point x="72" y="220" type="line" smooth="yes"/>
      <point x="72" y="90"/>
      <point x="178" y="-16"/>
      <point x="308" y="-16" type="curve" smooth="yes"/>
      <point x="438" y="-16"/>
      <point x="544" y="90"/>
      <point x="544" y="220" type="curve" smooth="yes"/>
      <point x="544" y="980" type="line" smooth="yes"/>
      <point x="544" y="1110"/>
      <point x="438" y="1216"/>
      <point x="308" y="1216" type="curve" smooth="yes"/>
      <point x="178" y="1216"/>
      <point x="72" y="1110"/>
      <point x="72" y="980" type="curve" smooth="yes"/>
    </contour>
    <contour>
      <point x="120" y="220" type="curve" smooth="yes"/>
      <point x="120" y="980" type="line" smooth="yes"/>
      <point x="120" y="1084"/>
      <point x="204" y="1168"/>
      <point x="308" y="1168" type="curve" smooth="yes"/>
      <point x="412" y="1168"/>
      <point x="496" y="1084"/>
      <point x="496" y="980" type="curve" smooth="yes"/>
      <point x="496" y="220" type="line" smooth="yes"/>
      <point x="496" y="116"/>
      <point x="412" y="32"/>
      <point x="308" y="32" type="curve" smooth="yes"/>
      <point x="204" y="32"/>
      <point x="120" y="116"/>
    </contour>
    <contour>
      <point x="390" y="158" type="line" smooth="yes"/>
      <point x="384" y="165"/>
      <point x="374" y="165"/>
      <point x="368" y="158" type="curve" smooth="yes"/>
      <point x="356" y="146" type="line" smooth="yes"/>
      <point x="349" y="140"/>
      <point x="349" y="130"/>
      <point x="356" y="124" type="curve" smooth="yes"/>
      <point x="511" y="-31" type="line" smooth="yes"/>
      <point x="517" y="-38"/>
      <point x="527" y="-38"/>
      <point x="533" y="-31" type="curve" smooth="yes"/>
      <point x="545" y="-19" type="line" smooth="yes"/>
      <point x="552" y="-13"/>
      <point x="552" y="-3"/>
      <point x="545" y="3" type="curve" smooth="yes"/>
    </contour>
  </outline>
</glyph>
<glyph name="R" format="1">
  <advance width="690.0"/>
  <unicode hex="0052"/>
  <outline>
    <contour>
      <point x="109" y="570" type="line" smooth="yes"/>
      <point x="100" y="570"/>
      <point x="93" y="563"/>
      <point x="93" y="554" type="curve" smooth="yes"/>
      <point x="93" y="538" type="line" smooth="yes"/>
      <point x="93" y="529"/>
      <point x="100" y="522"/>
      <point x="109" y="522" type="curve" smooth="yes"/>
      <point x="285" y="522" type="line" smooth="yes"/>
      <point x="471" y="522"/>
      <point x="624" y="675"/>
      <point x="624" y="861" type="curve" smooth="yes"/>
      <point x="624" y="1047"/>
      <point x="471" y="1200"/>
      <point x="285" y="1200" type="curve" smooth="yes"/>
      <point x="88" y="1200" type="line" smooth="yes"/>
      <point x="79" y="1200"/>
      <point x="72" y="1193"/>
      <point x="72" y="1184" type="curve" smooth="yes"/>
      <point x="72" y="16" type="line" smooth="yes"/>
      <point x="72" y="7"/>
      <point x="79" y="0"/>
      <point x="88" y="0" type="curve" smooth="yes"/>
      <point x="104" y="0" type="line" smooth="yes"/>
      <point x="113" y="0"/>
      <point x="120" y="7"/>
      <point x="120" y="16" type="curve" smooth="yes"/>
      <point x="120" y="1176" type="line"/>
      <point x="96" y="1152" type="line" smooth="yes"/>
      <point x="285" y="1152" type="line"/>
      <point x="445" y="1152"/>
      <point x="576" y="1021"/>
      <point x="576" y="861" type="curve" smooth="yes"/>
      <point x="576" y="701"/>
      <point x="445" y="570"/>
      <point x="285" y="570" type="curve" smooth="yes"/>
    </contour>
    <contour>
      <point x="294" y="555" type="line" smooth="yes"/>
      <point x="286" y="551"/>
      <point x="284" y="541"/>
      <point x="288" y="533" type="curve" smooth="yes"/>
      <point x="591" y="8" type="line" smooth="yes"/>
      <point x="594" y="3"/>
      <point x="600" y="0"/>
      <point x="605" y="0" type="curve" smooth="yes"/>
      <point x="623" y="0" type="line" smooth="yes"/>
      <point x="635" y="0"/>
      <point x="643" y="14"/>
      <point x="637" y="24" type="curve" smooth="yes"/>
      <point x="330" y="557" type="line" smooth="yes"/>
      <point x="325" y="565"/>
      <point x="316" y="567"/>
      <point x="308" y="563" type="curve" smooth="yes"/>
    </contour>
  </outline>
</glyph>
<glyph name="S" format="1">
  <advance width="616.0"/>
  <unicode hex="0053"/>
  <outline>
    <contour>
      <point x="499" y="980" type="curve" smooth="yes"/>
      <point x="499" y="971"/>
      <point x="506" y="964"/>
      <point x="515" y="964" type="curve" smooth="yes"/>
      <point x="531" y="964" type="line" smooth="yes"/>
      <point x="540" y="964"/>
      <point x="547" y="971"/>
      <point x="547" y="980" type="curve" smooth="yes"/>
      <point x="547" y="1110"/>
      <point x="441" y="1216"/>
      <point x="311" y="1216" type="curve" smooth="yes"/>
      <point x="311" y="1216"/>
      <point x="308" y="1216"/>
      <point x="308" y="1216" type="curve" smooth="yes"/>
      <point x="178" y="1216"/>
      <point x="72" y="1110"/>
      <point x="72" y="980" type="curve" smooth="yes"/>
      <point x="72" y="889" type="line" smooth="yes"/>
      <point x="72" y="759"/>
      <point x="178" y="653"/>
      <point x="308" y="653" type="curve" smooth="yes"/>
      <point x="308" y="653"/>
      <point x="310" y="653"/>
      <point x="310" y="653" type="curve" smooth="yes"/>
      <point x="414" y="653"/>
      <point x="498" y="569"/>
      <point x="498" y="465" type="curve" smooth="yes"/>
      <point x="498" y="220" type="line" smooth="yes"/>
      <point x="498" y="116"/>
      <point x="414" y="32"/>
      <point x="310" y="32" type="curve" smooth="yes"/>
      <point x="308" y="32" type="line" smooth="yes"/>
      <point x="204" y="32"/>
      <point x="120" y="116"/>
      <point x="120" y="220" type="curve" smooth="yes"/>
      <point x="120" y="229"/>
      <point x="113" y="236"/>
      <point x="104" y="236" type="curve" smooth="yes"/>
      <point x="88" y="236" type="line" smooth="yes"/>
      <point x="79" y="236"/>
      <point x="72" y="229"/>
      <point x="72" y="220" type="curve" smooth="yes"/>
      <point x="72" y="90"/>
      <point x="178" y="-16"/>
      <point x="308" y="-16" type="curve" smooth="yes"/>
      <point x="310" y="-16" type="line" smooth="yes"/>
      <point x="440" y="-16"/>
      <point x="546" y="90"/>
      <point x="546" y="220" type="curve" smooth="yes"/>
      <point x="546" y="465" type="line" smooth="yes"/>
      <point x="546" y="595"/>
      <point x="440" y="701"/>
      <point x="310" y="701" type="curve" smooth="yes"/>
      <point x="310" y="701"/>
      <point x="308" y="701"/>
      <point x="308" y="701" type="curve" smooth="yes"/>
      <point x="204" y="701"/>
      <point x="120" y="785"/>
      <point x="120" y="889" type="curve" smooth="yes"/>
      <point x="120" y="980" type="line" smooth="yes"/>
      <point x="120" y="1084"/>
      <point x="204" y="1168"/>
      <point x="308" y="1168" type="curve" smooth="yes"/>
      <point x="308" y="1168"/>
      <point x="311" y="1168"/>
      <point x="311" y="1168" type="curve" smooth="yes"/>
      <point x="415" y="1168"/>
      <point x="499" y="1084"/>
    </contour>
  </outline>
</glyph>
<glyph name="T" format="1">
  <advance width="616.0"/>
  <unicode hex="0054"/>
  <outline>
    <contour>
      <point x="96" y="1200" type="line" smooth="yes"/>
      <point x="87" y="1200"/>
      <point x="80" y="1193"/>
      <point x="80" y="1184" type="curve" smooth="yes"/>
      <point x="80" y="1168" type="line" smooth="yes"/>
      <point x="80" y="1159"/>
      <point x="87" y="1152"/>
      <point x="96" y="1152" type="curve" smooth="yes"/>
      <point x="520" y="1152" type="line" smooth="yes"/>
      <point x="529" y="1152"/>
      <point x="536" y="1159"/>
      <point x="536" y="1168" type="curve" smooth="yes"/>
      <point x="536" y="1184" type="line" smooth="yes"/>
      <point x="536" y="1193"/>
      <point x="529" y="1200"/>
      <point x="520" y="1200" type="curve" smooth="yes"/>
    </contour>
    <contour>
      <point x="332" y="1176" type="line" smooth="yes"/>
      <point x="332" y="1185"/>
      <point x="325" y="1192"/>
      <point x="316" y="1192" type="curve" smooth="yes"/>
      <point x="300" y="1192" type="line" smooth="yes"/>
      <point x="291" y="1192"/>
      <point x="284" y="1185"/>
      <point x="284" y="1176" type="curve" smooth="yes"/>
      <point x="284" y="16" type="line" smooth="yes"/>
      <point x="284" y="7"/>
      <point x="291" y="0"/>
      <point x="300" y="0" type="curve" smooth="yes"/>
      <point x="316" y="0" type="line" smooth="yes"/>
      <point x="325" y="0"/>
      <point x="332" y="7"/>
      <point x="332" y="16" type="curve" smooth="yes"/>
    </contour>
  </outline>
</glyph>
<glyph name="V" format="1">
  <advance width="620.0"/>
  <unicode hex="0056"/>
  <outline>
    <contour>
      <point x="284" y="31" type="line"/>
      <point x="332" y="31" type="line"/>
      <point x="120" y="1187" type="line" smooth="yes"/>
      <point x="118" y="1194"/>
      <point x="111" y="1200"/>
      <point x="104" y="1200" type="curve" smooth="yes"/>
      <point x="88" y="1200" type="line" smooth="yes"/>
      <point x="77" y="1200"/>
      <point x="70" y="1192"/>
      <point x="72" y="1181" type="curve" smooth="yes"/>
      <point x="292" y="-20" type="line" smooth="yes"/>
      <point x="297" y="-45"/>
      <point x="319" y="-45"/>
      <point x="324" y="-20" type="curve" smooth="yes"/>
      <point x="544" y="1181" type="line" smooth="yes"/>
      <point x="546" y="1192"/>
      <point x="539" y="1200"/>
      <point x="528" y="1200" type="curve" smooth="yes"/>
      <point x="512" y="1200" type="line" smooth="yes"/>
      <point x="505" y="1200"/>
      <point x="498" y="1194"/>
      <point x="496" y="1187" type="curve" smooth="yes"/>
    </contour>
  </outline>
</glyph>
<glyph name="W" format="1">
  <advance width="676.0"/>
  <unicode hex="0057"/>
  <outline>
    <contour>
      <point x="507" y="-5" type="line" smooth="yes"/>
      <point x="509" y="-11"/>
      <point x="515" y="-16"/>
      <point x="522" y="-16" type="curve" smooth="yes"/>
      <point x="538" y="-16" type="line" smooth="yes"/>
      <point x="546" y="-16"/>
      <point x="554" y="-9"/>
      <point x="554" y="-1" type="curve" smooth="yes"/>
      <point x="614" y="1191" type="line" smooth="yes"/>
      <point x="614" y="1200"/>
      <point x="607" y="1208"/>
      <point x="598" y="1208" type="curve" smooth="yes"/>
      <point x="582" y="1208" type="line" smooth="yes"/>
      <point x="574" y="1208"/>
      <point x="566" y="1201"/>
      <point x="566" y="1193" type="curve" smooth="yes"/>
      <point x="507" y="22" type="line"/>
      <point x="553" y="7" type="line"/>
      <point x="353" y="686" type="line"/>
      <point x="347" y="707"/>
      <point x="329" y="707"/>
      <point x="323" y="686" type="curve" smooth="yes"/>
      <point x="123" y="7" type="line"/>
      <point x="169" y="22" type="line"/>
      <point x="110" y="1193" type="line"/>
      <point x="110" y="1201"/>
      <point x="102" y="1208"/>
      <point x="94" y="1208" type="curve" smooth="yes"/>
      <point x="78" y="1208" type="line" smooth="yes"/>
      <point x="69" y="1208"/>
      <point x="62" y="1200"/>
      <point x="62" y="1191" type="curve" smooth="yes"/>
      <point x="122" y="-1" type="line" smooth="yes"/>
      <point x="122" y="-9"/>
      <point x="130" y="-16"/>
      <point x="138" y="-16" type="curve" smooth="yes"/>
      <point x="154" y="-16" type="line" smooth="yes"/>
      <point x="161" y="-16"/>
      <point x="167" y="-11"/>
      <point x="169" y="-5" type="curve"/>
      <point x="361" y="646" type="line" smooth="yes"/>
      <point x="315" y="646" type="line"/>
    </contour>
  </outline>
</glyph>
<glyph name="X" format="1">
  <advance width="618.0"/>
  <unicode hex="0058"/>
  <outline>
    <contour>
      <point x="496" y="11" type="line" smooth="yes"/>
      <point x="498" y="4"/>
      <point x="505" y="0"/>
      <point x="511" y="0" type="curve" smooth="yes"/>
      <point x="529" y="0" type="line" smooth="yes"/>
      <point x="540" y="0"/>
      <point x="548" y="11"/>
      <point x="544" y="21" type="curve" smooth="yes"/>
      <point x="120" y="1189" type="line" smooth="yes"/>
      <point x="118" y="1196"/>
      <point x="111" y="1200"/>
      <point x="105" y="1200" type="curve" smooth="yes"/>
      <point x="87" y="1200" type="line" smooth="yes"/>
      <point x="76" y="1200"/>
      <point x="68" y="1189"/>
      <point x="72" y="1179" type="curve" smooth="yes"/>
    </contour>
    <contour>
      <point x="105" y="0" type="line" smooth="yes"/>
      <point x="111" y="0"/>
      <point x="118" y="4"/>
      <point x="120" y="11" type="curve" smooth="yes"/>
      <point x="544" y="1179" type="line" smooth="yes"/>
      <point x="548" y="1189"/>
      <point x="540" y="1200"/>
      <point x="529" y="1200" type="curve" smooth="yes"/>
      <point x="511" y="1200" type="line" smooth="yes"/>
      <point x="505" y="1200"/>
      <point x="498" y="1196"/>
      <point x="496" y="1189" type="curve" smooth="yes"/>
      <point x="72" y="21" type="line" smooth="yes"/>
      <point x="68" y="11"/>
      <point x="76" y="0"/>
      <point x="87" y="0" type="curve" smooth="yes"/>
    </contour>
  </outline>
</glyph>
<glyph name="Y" format="1">
  <advance width="596.0"/>
  <unicode hex="0059"/>
  <outline>
    <contour>
      <point x="318" y="278" type="line" smooth="yes"/>
      <point x="270" y="278" type="line"/>
      <point x="61" y="1180" type="line" smooth="yes"/>
      <point x="59" y="1191"/>
      <point x="66" y="1200"/>
      <point x="77" y="1200" type="curve" smooth="yes"/>
      <point x="94" y="1200" type="line" smooth="yes"/>
      <point x="101" y="1200"/>
      <point x="108" y="1194"/>
      <point x="110" y="1188" type="curve"/>
      <point x="318" y="290" type="line" smooth="yes"/>
      <point x="270" y="290" type="line"/>
      <point x="482" y="1188" type="line" smooth="yes"/>
      <point x="484" y="1194"/>
      <point x="491" y="1200"/>
      <point x="498" y="1200" type="curve" smooth="yes"/>
      <point x="515" y="1200" type="line" smooth="yes"/>
      <point x="526" y="1200"/>
      <point x="533" y="1191"/>
      <point x="531" y="1180" type="curve" smooth="yes"/>
      <point x="318" y="278" type="line"/>
    </contour>
    <contour>
      <point x="318" y="292" type="line"/>
      <point x="318" y="16" type="line" smooth="yes"/>
      <point x="318" y="7"/>
      <point x="311" y="0"/>
      <point x="302" y="0" type="curve" smooth="yes"/>
      <point x="286" y="0" type="line" smooth="yes"/>
      <point x="277" y="0"/>
      <point x="270" y="7"/>
      <point x="270" y="16" type="curve" smooth="yes"/>
      <point x="270" y="292" type="line"/>
    </contour>
  </outline>
</glyph>
<glyph name="Z" format="1">
  <advance width="616.0"/>
  <unicode hex="005A"/>
  <outline>
    <contour>
      <point x="96" y="1200" type="line" smooth="yes"/>
      <point x="87" y="1200"/>
      <point x="80" y="1193"/>
      <point x="80" y="1184" type="curve" smooth="yes"/>
      <point x="80" y="1168" type="line" smooth="yes"/>
      <point x="80" y="1159"/>
      <point x="87" y="1152"/>
      <point x="96" y="1152" type="curve"/>
      <point x="520" y="1152" type="line" smooth="yes"/>
      <point x="497" y="1185" type="line"/>
      <point x="70" y="22" type="line" smooth="yes"/>
      <point x="66" y="11"/>
      <point x="74" y="0"/>
      <point x="85" y="0" type="curve" smooth="yes"/>
      <point x="520" y="0" type="line" smooth="yes"/>
      <point x="529" y="0"/>
      <point x="536" y="7"/>
      <point x="536" y="16" type="curve" smooth="yes"/>
      <point x="536" y="32" type="line" smooth="yes"/>
      <point x="536" y="41"/>
      <point x="529" y="48"/>
      <point x="520" y="48" type="curve"/>
      <point x="96" y="48" type="line" smooth="yes"/>
      <point x="119" y="15" type="line"/>
      <point x="546" y="1178" type="line" smooth="yes"/>
      <point x="550" y="1189"/>
      <point x="542" y="1200"/>
      <point x="531" y="1200" type="curve" smooth="yes"/>
    </contour>
  </outline>
</glyph>
<glyph name="d" format="1">
  <advance width="616.0"/>
  <unicode hex="0064"/>
  <outline>
    <contour>
      <point x="536" y="640" type="curve" smooth="yes"/>
      <point x="536" y="631"/>
      <point x="529" y="624"/>
      <point x="520" y="624" type="curve" smooth="yes"/>
      <point x="504" y="624" type="line" smooth="yes"/>
      <point x="495" y="624"/>
      <point x="488" y="631"/>
      <point x="488" y="640" type="curve" smooth="yes"/>
      <point x="488" y="739"/>
      <point x="407" y="820"/>
      <point x="308" y="820" type="curve" smooth="yes"/>
      <point x="209" y="820"/>
      <point x="128" y="739"/>
      <point x="128" y="640" type="curve" smooth="yes"/>
      <point x="128" y="212" type="line" smooth="yes"/>
      <point x="128" y="113"/>
      <point x="209" y="32"/>
      <point x="308" y="32" type="curve" smooth="yes"/>
      <point x="407" y="32"/>
      <point x="488" y="113"/>
      <point x="488" y="212" type="curve" smooth="yes"/>
      <point x="488" y="1200" type="line" smooth="yes"/>
      <point x="488" y="1209"/>
      <point x="495" y="1216"/>
      <point x="504" y="1216" type="curve" smooth="yes"/>
      <point x="520" y="1216" type="line" smooth="yes"/>
      <point x="529" y="1216"/>
      <point x="536" y="1209"/>
      <point x="536" y="1200" type="curve" smooth="yes"/>
      <point x="536" y="212" type="line" smooth="yes"/>
      <point x="536" y="86"/>
      <point x="434" y="-16"/>
      <point x="308" y="-16" type="curve" smooth="yes"/>
      <point x="182" y="-16"/>
      <point x="80" y="86"/>
      <point x="80" y="212" type="curve" smooth="yes"/>
      <point x="80" y="640" type="line" smooth="yes"/>
      <point x="80" y="766"/>
      <point x="182" y="868"/>
      <point x="308" y="868" type="curve" smooth="yes"/>
      <point x="434" y="868"/>
      <point x="536" y="766"/>
    </contour>
  </outline>
</glyph>
<glyph name="f" format="1">
  <advance width="364.0"/>
  <unicode hex="0066"/>
  <outline>
    <contour>
      <point x="128" y="16" type="line" smooth="yes"/>
      <point x="128" y="7"/>
      <point x="121" y="0"/>
      <point x="112" y="0" type="curve" smooth="yes"/>
      <point x="96" y="0" type="line" smooth="yes"/>
      <point x="87" y="0"/>
      <point x="80" y="7"/>
      <point x="80" y="16" type="curve" smooth="yes"/>
      <point x="80" y="988" type="line" smooth="yes"/>
      <point x="80" y="1114"/>
      <point x="182" y="1216"/>
      <point x="308" y="1216" type="curve" smooth="yes"/>
      <point x="317" y="1216"/>
      <point x="324" y="1209"/>
      <point x="324" y="1200" type="curve" smooth="yes"/>
      <point x="324" y="1184" type="line" smooth="yes"/>
      <point x="324" y="1175"/>
      <point x="317" y="1168"/>
      <point x="308" y="1168" type="curve" smooth="yes"/>
      <point x="209" y="1168"/>
      <point x="128" y="1087"/>
      <point x="128" y="988" type="curve" smooth="yes"/>
    </contour>
    <contour>
      <point x="112" y="645" type="line" smooth="yes"/>
      <point x="103" y="645"/>
      <point x="96" y="652"/>
      <point x="96" y="661" type="curve" smooth="yes"/>
      <point x="96" y="677" type="line" smooth="yes"/>
      <point x="96" y="686"/>
      <point x="103" y="693"/>
      <point x="112" y="693" type="curve" smooth="yes"/>
      <point x="236" y="693" type="line" smooth="yes"/>
      <point x="245" y="693"/>
      <point x="252" y="686"/>
      <point x="252" y="677" type="curve" smooth="yes"/>
      <point x="252" y="661" type="line" smooth="yes"/>
      <point x="252" y="652"/>
      <point x="245" y="645"/>
      <point x="236" y="645" type="curve" smooth="yes"/>
    </contour>
  </outline>
</glyph>
<glyph name="g" format="1">
  <advance width="616.0"/>
  <unicode hex="0067"/>
  <outline>
    <contour>
      <point x="488" y="-252" type="curve" smooth="yes"/>
      <point x="488" y="640" type="line" smooth="yes"/>
      <point x="488" y="739"/>
      <point x="407" y="820"/>
      <point x="308" y="820" type="curve" smooth="yes"/>
      <point x="209" y="820"/>
      <point x="128" y="739"/>
      <point x="128" y="640" type="curve" smooth="yes"/>
      <point x="128" y="212" type="line" smooth="yes"/>
      <point x="128" y="113"/>
      <point x="209" y="32"/>
      <point x="308" y="32" type="curve" smooth="yes"/>
      <point x="407" y="32"/>
      <point x="488" y="113"/>
      <point x="488" y="212" type="curve" smooth="yes"/>
      <point x="488" y="221"/>
      <point x="495" y="228"/>
      <point x="504" y="228" type="curve" smooth="yes"/>
      <point x="520" y="228" type="line" smooth="yes"/>
      <point x="529" y="228"/>
      <point x="536" y="221"/>
      <point x="536" y="212" type="curve" smooth="yes"/>
      <point x="536" y="86"/>
      <point x="434" y="-16"/>
      <point x="308" y="-16" type="curve" smooth="yes"/>
      <point x="182" y="-16"/>
      <point x="80" y="86"/>
      <point x="80" y="212" type="curve" smooth="yes"/>
      <point x="80" y="640" type="line" smooth="yes"/>
      <point x="80" y="766"/>
      <point x="182" y="868"/>
      <point x="308" y="868" type="curve" smooth="yes"/>
      <point x="434" y="868"/>
      <point x="536" y="766"/>
      <point x="536" y="640" type="curve" smooth="yes"/>
      <point x="536" y="-252" type="line" smooth="yes"/>
      <point x="536" y="-378"/>
      <point x="434" y="-480"/>
      <point x="308" y="-480" type="curve" smooth="yes"/>
      <point x="182" y="-480"/>
      <point x="80" y="-378"/>
      <point x="80" y="-252" type="curve" smooth="yes"/>
      <point x="80" y="-243"/>
      <point x="87" y="-236"/>
      <point x="96" y="-236" type="curve" smooth="yes"/>
      <point x="112" y="-236" type="line" smooth="yes"/>
      <point x="121" y="-236"/>
      <point x="128" y="-243"/>
      <point x="128" y="-252" type="curve" smooth="yes"/>
      <point x="128" y="-351"/>
      <point x="209" y="-432"/>
      <point x="308" y="-432" type="curve" smooth="yes"/>
      <point x="407" y="-432"/>
      <point x="488" y="-351"/>
    </contour>
  </outline>
</glyph>
<glyph name="k" format="1">
  <advance width="616"/>
  <unicode hex="006B"/>
  <outline>
    <contour>
      <point x="84" y="437" type="line" smooth="yes"/>
      <point x="78" y="444"/>
      <point x="79" y="454"/>
      <point x="85" y="460" type="curve" smooth="yes"/>
      <point x="503" y="854" type="line" smooth="yes"/>
      <point x="510" y="860"/>
      <point x="520" y="859"/>
      <point x="526" y="853" type="curve" smooth="yes"/>
      <point x="537" y="841" type="line" smooth="yes"/>
      <point x="543" y="834"/>
      <point x="542" y="824"/>
      <point x="536" y="818" type="curve" smooth="yes"/>
      <point x="118" y="424" type="line" smooth="yes"/>
      <point x="111" y="418"/>
      <point x="101" y="419"/>
      <point x="95" y="425" type="curve" smooth="yes"/>
    </contour>
    <contour>
      <point x="520" y="0" type="line" smooth="yes"/>
      <point x="516" y="0"/>
      <point x="511" y="2"/>
      <point x="508" y="5" type="curve" smooth="yes"/>
      <point x="100" y="441" type="line" smooth="yes"/>
      <point x="94" y="448"/>
      <point x="95" y="458"/>
      <point x="101" y="464" type="curve" smooth="yes"/>
      <point x="113" y="475" type="line" smooth="yes"/>
      <point x="120" y="481"/>
      <point x="130" y="480"/>
      <point x="136" y="474" type="curve" smooth="yes"/>
      <point x="552" y="27" type="line" smooth="yes"/>
      <point x="565" y="13"/>
      <point x="559" y="0"/>
      <point x="540" y="0" type="curve" smooth="yes"/>
    </contour>
    <contour>
      <point x="96" y="1232" type="curve" smooth="yes"/>
      <point x="112" y="1232" type="line" smooth="yes"/>
      <point x="121" y="1232"/>
      <point x="128" y="1225"/>
      <point x="128" y="1216" type="curve" smooth="yes"/>
      <point x="128" y="16" type="line" smooth="yes"/>
      <point x="128" y="7"/>
      <point x="121" y="0"/>
      <point x="112" y="0" type="curve" smooth="yes"/>
      <point x="96" y="0" type="line" smooth="yes"/>
      <point x="87" y="0"/>
      <point x="80" y="7"/>
      <point x="80" y="16" type="curve" smooth="yes"/>
      <point x="80" y="1216" type="line" smooth="yes"/>
      <point x="80" y="1225"/>
      <point x="87" y="1232"/>
    </contour>
  </outline>
</glyph>
<glyph name="l" format="1">
  <advance width="192"/>
  <unicode hex="006C"/>
  <outline>
    <contour>
      <point x="120" y="16" type="line" smooth="yes"/>
      <point x="120" y="7"/>
      <point x="113" y="0"/>
      <point x="104" y="0" type="curve" smooth="yes"/>
      <point x="88" y="0" type="line" smooth="yes"/>
      <point x="79" y="0"/>
      <point x="72" y="7"/>
      <point x="72" y="16" type="curve" smooth="yes"/>
      <point x="72" y="1216" type="line" smooth="yes"/>
      <point x="72" y="1225"/>
      <point x="79" y="1232"/>
      <point x="88" y="1232" type="curve" smooth="yes"/>
      <point x="104" y="1232" type="line" smooth="yes"/>
      <point x="113" y="1232"/>
      <point x="120" y="1225"/>
      <point x="120" y="1216" type="curve" smooth="yes"/>
    </contour>
  </outline>
</glyph>
<glyph name="m" format="1">
  <advance width="757"/>
  <unicode hex="006D"/>
  <outline>
    <contour>
      <point x="80" y="16" type="curve" smooth="yes"/>
      <point x="80" y="820" type="line" smooth="yes"/>
      <point x="80" y="829"/>
      <point x="87" y="836"/>
      <point x="96" y="836" type="curve" smooth="yes"/>
      <point x="112" y="836" type="line" smooth="yes"/>
      <point x="121" y="836"/>
      <point x="128" y="829"/>
      <point x="128" y="820" type="curve" smooth="yes"/>
      <point x="128" y="16" type="line" smooth="yes"/>
      <point x="128" y="7"/>
      <point x="121" y="0"/>
      <point x="112" y="0" type="curve" smooth="yes"/>
      <point x="96" y="0" type="line" smooth="yes"/>
      <point x="87" y="0"/>
      <point x="80" y="7"/>
    </contour>
    <contour>
      <point x="80" y="691" type="curve" smooth="yes"/>
      <point x="80" y="780"/>
      <point x="152" y="852"/>
      <point x="241" y="852" type="curve" smooth="yes"/>
      <point x="330" y="852"/>
      <point x="402" y="780"/>
      <point x="402" y="691" type="curve" smooth="yes"/>
      <point x="402" y="16" type="line" smooth="yes"/>
      <point x="402" y="7"/>
      <point x="395" y="0"/>
      <point x="386" y="0" type="curve" smooth="yes"/>
      <point x="370" y="0" type="line" smooth="yes"/>
      <point x="361" y="0"/>
      <point x="354" y="7"/>
      <point x="354" y="16" type="curve" smooth="yes"/>
      <point x="354" y="691" type="line" smooth="yes"/>
      <point x="354" y="753"/>
      <point x="303" y="804"/>
      <point x="241" y="804" type="curve" smooth="yes"/>
      <point x="179" y="804"/>
      <point x="128" y="753"/>
      <point x="128" y="691" type="curve" smooth="yes"/>
      <point x="128" y="682"/>
      <point x="121" y="675"/>
      <point x="112" y="675" type="curve" smooth="yes"/>
      <point x="96" y="675" type="line" smooth="yes"/>
      <point x="87" y="675"/>
      <point x="80" y="682"/>
    </contour>
    <contour>
      <point x="354" y="691" type="curve" smooth="yes"/>
      <point x="354" y="780"/>
      <point x="426" y="852"/>
      <point x="515" y="852" type="curve" smooth="yes"/>
      <point x="604" y="852"/>
      <point x="676" y="780"/>
      <point x="676" y="691" type="curve" smooth="yes"/>
      <point x="676" y="16" type="line" smooth="yes"/>
      <point x="676" y="7"/>
      <point x="669" y="0"/>
      <point x="660" y="0" type="curve" smooth="yes"/>
      <point x="644" y="0" type="line" smooth="yes"/>
      <point x="635" y="0"/>
      <point x="628" y="7"/>
      <point x="628" y="16" type="curve" smooth="yes"/>
      <point x="628" y="691" type="line" smooth="yes"/>
      <point x="628" y="753"/>
      <point x="577" y="804"/>
      <point x="515" y="804" type="curve" smooth="yes"/>
      <point x="453" y="804"/>
      <point x="402" y="753"/>
      <point x="402" y="691" type="curve" smooth="yes"/>
      <point x="402" y="682"/>
      <point x="395" y="675"/>
      <point x="386" y="675" type="curve" smooth="yes"/>
      <point x="370" y="675" type="line" smooth="yes"/>
      <point x="361" y="675"/>
      <point x="354" y="682"/>
    </contour>
  </outline>
</glyph>
<glyph name="n" format="1">
  <advance width="616.0"/>
  <unicode hex="006E"/>
  <outline>
    <contour>
      <point x="80" y="16" type="curve" smooth="yes"/>
      <point x="80" y="820" type="line" smooth="yes"/>
      <point x="80" y="829"/>
      <point x="87" y="836"/>
      <point x="96" y="836" type="curve" smooth="yes"/>
      <point x="112" y="836" type="line" smooth="yes"/>
      <point x="121" y="836"/>
      <point x="128" y="829"/>
      <point x="128" y="820" type="curve" smooth="yes"/>
      <point x="128" y="16" type="line" smooth="yes"/>
      <point x="128" y="7"/>
      <point x="121" y="0"/>
      <point x="112" y="0" type="curve" smooth="yes"/>
      <point x="96" y="0" type="line" smooth="yes"/>
      <point x="87" y="0"/>
      <point x="80" y="7"/>
    </contour>
    <contour>
      <point x="488" y="16" type="curve" smooth="yes"/>
      <point x="488" y="640" type="line" smooth="yes"/>
      <point x="488" y="739"/>
      <point x="407" y="820"/>
      <point x="308" y="820" type="curve" smooth="yes"/>
      <point x="209" y="820"/>
      <point x="128" y="739"/>
      <point x="128" y="640" type="curve" smooth="yes"/>
      <point x="128" y="631"/>
      <point x="121" y="624"/>
      <point x="112" y="624" type="curve" smooth="yes"/>
      <point x="96" y="624" type="line" smooth="yes"/>
      <point x="87" y="624"/>
      <point x="80" y="631"/>
      <point x="80" y="640" type="curve" smooth="yes"/>
      <point x="80" y="766"/>
      <point x="182" y="868"/>
      <point x="308" y="868" type="curve" smooth="yes"/>
      <point x="434" y="868"/>
      <point x="536" y="766"/>
      <point x="536" y="640" type="curve" smooth="yes"/>
      <point x="536" y="16" type="line" smooth="yes"/>
      <point x="536" y="7"/>
      <point x="529" y="0"/>
      <point x="520" y="0" type="curve" smooth="yes"/>
      <point x="504" y="0" type="line" smooth="yes"/>
      <point x="495" y="0"/>
      <point x="488" y="7"/>
    </contour>
  </outline>
</glyph>
<glyph name="o" format="1">
  <advance width="616.0"/>
  <unicode hex="006F"/>
  <outline>
    <contour>
      <point x="536" y="212" type="line"/>
      <point x="536" y="86"/>
      <point x="434" y="-16"/>
      <point x="308" y="-16" type="curve" smooth="yes"/>
      <point x="182" y="-16"/>
      <point x="80" y="86"/>
      <point x="80" y="212" type="curve" smooth="yes"/>
      <point x="80" y="640" type="line" smooth="yes"/>
      <point x="80" y="766"/>
      <point x="182" y="868"/>
      <point x="308" y="868" type="curve" smooth="yes"/>
      <point x="434" y="868"/>
      <point x="536" y="766"/>
      <point x="536" y="640" type="curve" smooth="yes"/>
    </contour>
    <contour>
      <point x="488" y="212" type="curve"/>
      <point x="488" y="640" type="line" smooth="yes"/>
      <point x="488" y="739"/>
      <point x="407" y="820"/>
      <point x="308" y="820" type="curve" smooth="yes"/>
      <point x="209" y="820"/>
      <point x="128" y="739"/>
      <point x="128" y="640" type="curve" smooth="yes"/>
      <point x="128" y="212" type="line" smooth="yes"/>
      <point x="128" y="113"/>
      <point x="209" y="32"/>
      <point x="308" y="32" type="curve" smooth="yes"/>
      <point x="407" y="32"/>
      <point x="488" y="113"/>
    </contour>
  </outline>
</glyph>
<glyph name="s" format="1">
  <advance width="629"/>
  <unicode hex="0073"/>
  <outline>
    <contour>
      <point x="91" y="238" type="curve" smooth="yes"/>
      <point x="107" y="238" type="line" smooth="yes"/>
      <point x="116" y="238"/>
      <point x="123" y="231"/>
      <point x="123" y="222" type="curve" smooth="yes"/>
      <point x="123" y="118"/>
      <point x="209" y="32"/>
      <point x="313" y="32" type="curve" smooth="yes"/>
      <point x="315" y="32" type="line" smooth="yes"/>
      <point x="419" y="32"/>
      <point x="505" y="118"/>
      <point x="505" y="222" type="curve" smooth="yes"/>
      <point x="505" y="326"/>
      <point x="419" y="412"/>
      <point x="315" y="412" type="curve" smooth="yes"/>
      <point x="313" y="412" type="line" smooth="yes"/>
      <point x="190" y="412"/>
      <point x="89" y="513"/>
      <point x="89" y="636" type="curve" smooth="yes"/>
      <point x="89" y="759"/>
      <point x="190" y="860"/>
      <point x="313" y="860" type="curve" smooth="yes"/>
      <point x="315" y="860" type="line" smooth="yes"/>
      <point x="438" y="860"/>
      <point x="539" y="759"/>
      <point x="539" y="636" type="curve" smooth="yes"/>
      <point x="539" y="627"/>
      <point x="532" y="620"/>
      <point x="523" y="620" type="curve" smooth="yes"/>
      <point x="507" y="620" type="line" smooth="yes"/>
      <point x="498" y="620"/>
      <point x="491" y="627"/>
      <point x="491" y="636" type="curve" smooth="yes"/>
      <point x="491" y="733"/>
      <point x="412" y="812"/>
      <point x="315" y="812" type="curve" smooth="yes"/>
      <point x="313" y="812" type="line" smooth="yes"/>
      <point x="216" y="812"/>
      <point x="137" y="733"/>
      <point x="137" y="636" type="curve" smooth="yes"/>
      <point x="137" y="539"/>
      <point x="216" y="460"/>
      <point x="313" y="460" type="curve" smooth="yes"/>
      <point x="315" y="460" type="line" smooth="yes"/>
      <point x="446" y="460"/>
      <point x="553" y="353"/>
      <point x="553" y="222" type="curve" smooth="yes"/>
      <point x="553" y="91"/>
      <point x="446" y="-16"/>
      <point x="315" y="-16" type="curve" smooth="yes"/>
      <point x="313" y="-16" type="line" smooth="yes"/>
      <point x="182" y="-16"/>
      <point x="75" y="91"/>
      <point x="75" y="222" type="curve" smooth="yes"/>
      <point x="75" y="231"/>
      <point x="82" y="238"/>
    </contour>
  </outline>
</glyph>
<glyph name="t" format="1">
  <advance width="404.0"/>
  <unicode hex="0074"/>
  <outline>
    <contour>
      <point x="80" y="1034" type="line" smooth="yes"/>
      <point x="80" y="1043"/>
      <point x="87" y="1050"/>
      <point x="96" y="1050" type="curve" smooth="yes"/>
      <point x="112" y="1050" type="line" smooth="yes"/>
      <point x="121" y="1050"/>
      <point x="128" y="1043"/>
      <point x="128" y="1034" type="curve" smooth="yes"/>
      <point x="128" y="212" type="line" smooth="yes"/>
      <point x="128" y="113"/>
      <point x="209" y="32"/>
      <point x="308" y="32" type="curve" smooth="yes"/>
      <point x="310" y="32" type="line" smooth="yes"/>
      <point x="319" y="32"/>
      <point x="326" y="25"/>
      <point x="326" y="16" type="curve" smooth="yes"/>
      <point x="326" y="0" type="line" smooth="yes"/>
      <point x="326" y="-9"/>
      <point x="319" y="-16"/>
      <point x="310" y="-16" type="curve" smooth="yes"/>
      <point x="308" y="-16" type="line" smooth="yes"/>
      <point x="182" y="-16"/>
      <point x="80" y="86"/>
      <point x="80" y="212" type="curve" smooth="yes"/>
    </contour>
    <contour>
      <point x="101" y="645" type="line" smooth="yes"/>
      <point x="92" y="645"/>
      <point x="85" y="652"/>
      <point x="85" y="661" type="curve" smooth="yes"/>
      <point x="85" y="677" type="line" smooth="yes"/>
      <point x="85" y="686"/>
      <point x="92" y="693"/>
      <point x="101" y="693" type="curve" smooth="yes"/>
      <point x="236" y="693" type="line" smooth="yes"/>
      <point x="245" y="693"/>
      <point x="252" y="686"/>
      <point x="252" y="677" type="curve" smooth="yes"/>
      <point x="252" y="661" type="line" smooth="yes"/>
      <point x="252" y="652"/>
      <point x="245" y="645"/>
      <point x="236" y="645" type="curve" smooth="yes"/>
    </contour>
  </outline>
</glyph>
<glyph name="u" format="1">
  <advance width="616.0"/>
  <unicode hex="0075"/>
  <outline>
    <contour>
      <point x="536" y="836" type="curve" smooth="yes"/>
      <point x="536" y="32" type="line" smooth="yes"/>
      <point x="536" y="23"/>
      <point x="529" y="16"/>
      <point x="520" y="16" type="curve" smooth="yes"/>
      <point x="504" y="16" type="line" smooth="yes"/>
      <point x="495" y="16"/>
      <point x="488" y="23"/>
      <point x="488" y="32" type="curve" smooth="yes"/>
      <point x="488" y="836" type="line" smooth="yes"/>
      <point x="488" y="845"/>
      <point x="495" y="852"/>
      <point x="504" y="852" type="curve" smooth="yes"/>
      <point x="520" y="852" type="line" smooth="yes"/>
      <point x="529" y="852"/>
      <point x="536" y="845"/>
    </contour>
    <contour>
      <point x="128" y="836" type="curve" smooth="yes"/>
      <point x="128" y="212" type="line" smooth="yes"/>
      <point x="128" y="113"/>
      <point x="209" y="32"/>
      <point x="308" y="32" type="curve" smooth="yes"/>
      <point x="407" y="32"/>
      <point x="488" y="113"/>
      <point x="488" y="212" type="curve" smooth="yes"/>
      <point x="488" y="221"/>
      <point x="495" y="228"/>
      <point x="504" y="228" type="curve" smooth="yes"/>
      <point x="520" y="228" type="line" smooth="yes"/>
      <point x="529" y="228"/>
      <point x="536" y="221"/>
      <point x="536" y="212" type="curve" smooth="yes"/>
      <point x="536" y="86"/>
      <point x="434" y="-16"/>
      <point x="308" y="-16" type="curve" smooth="yes"/>
      <point x="182" y="-16"/>
      <point x="80" y="86"/>
      <point x="80" y="212" type="curve" smooth="yes"/>
      <point x="80" y="836" type="line" smooth="yes"/>
      <point x="80" y="845"/>
      <point x="87" y="852"/>
      <point x="96" y="852" type="curve" smooth="yes"/>
      <point x="112" y="852" type="line" smooth="yes"/>
      <point x="121" y="852"/>
      <point x="128" y="845"/>
    </contour>
  </outline>
</glyph>
<glyph name="v" format="1">
  <advance width="576.0"/>
  <unicode hex="0076"/>
  <outline>
    <contour>
      <point x="289" y="-16" type="curve" smooth="yes"/>
      <point x="287" y="-16" type="line" smooth="yes"/>
      <point x="280" y="-16"/>
      <point x="273" y="-11"/>
      <point x="271" y="-4" type="curve" smooth="yes"/>
      <point x="59" y="832" type="line" smooth="yes"/>
      <point x="57" y="843"/>
      <point x="64" y="852"/>
      <point x="75" y="852" type="curve" smooth="yes"/>
      <point x="92" y="852" type="line" smooth="yes"/>
      <point x="99" y="852"/>
      <point x="106" y="847"/>
      <point x="108" y="840" type="curve" smooth="yes"/>
      <point x="303" y="71" type="line"/>
      <point x="287" y="83" type="line"/>
      <point x="289" y="83" type="line"/>
      <point x="273" y="71" type="line"/>
      <point x="468" y="840" type="line" smooth="yes"/>
      <point x="470" y="847"/>
      <point x="477" y="852"/>
      <point x="484" y="852" type="curve" smooth="yes"/>
      <point x="501" y="852" type="line" smooth="yes"/>
      <point x="512" y="852"/>
      <point x="519" y="843"/>
      <point x="517" y="832" type="curve" smooth="yes"/>
      <point x="305" y="-4" type="line" smooth="yes"/>
      <point x="303" y="-11"/>
      <point x="296" y="-16"/>
    </contour>
  </outline>
</glyph>
<glyph name="w" format="1">
  <advance width="714"/>
  <unicode hex="0077"/>
  <outline>
    <contour>
      <point x="198" y="-3" type="curve" smooth="yes"/>
      <point x="190" y="4" type="line" smooth="yes"/>
      <point x="175" y="17"/>
      <point x="180" y="32"/>
      <point x="201" y="32" type="curve" smooth="yes"/>
      <point x="217" y="32" type="line" smooth="yes"/>
      <point x="238" y="32"/>
      <point x="243" y="17"/>
      <point x="228" y="4" type="curve" smooth="yes"/>
      <point x="220" y="-3" type="line" smooth="yes"/>
      <point x="204" y="-17"/>
      <point x="189" y="-9"/>
      <point x="193" y="12" type="curve" smooth="yes"/>
      <point x="341" y="833" type="line" smooth="yes"/>
      <point x="346" y="858"/>
      <point x="368" y="858"/>
      <point x="373" y="833" type="curve" smooth="yes"/>
      <point x="522" y="12" type="line" smooth="yes"/>
      <point x="526" y="-9"/>
      <point x="511" y="-17"/>
      <point x="495" y="-3" type="curve" smooth="yes"/>
      <point x="487" y="4" type="line" smooth="yes"/>
      <point x="472" y="17"/>
      <point x="477" y="32"/>
      <point x="498" y="32" type="curve" smooth="yes"/>
      <point x="514" y="32" type="line" smooth="yes"/>
      <point x="535" y="32"/>
      <point x="540" y="17"/>
      <point x="525" y="4" type="curve" smooth="yes"/>
      <point x="517" y="-3" type="line" smooth="yes"/>
      <point x="501" y="-17"/>
      <point x="487" y="-9"/>
      <point x="490" y="12" type="curve" smooth="yes"/>
      <point x="629" y="839" type="line" smooth="yes"/>
      <point x="630" y="846"/>
      <point x="638" y="852"/>
      <point x="645" y="852" type="curve" smooth="yes"/>
      <point x="662" y="852" type="line" smooth="yes"/>
      <point x="672" y="852"/>
      <point x="680" y="844"/>
      <point x="678" y="833" type="curve" smooth="yes"/>
      <point x="537" y="-3" type="line" smooth="yes"/>
      <point x="536" y="-10"/>
      <point x="528" y="-16"/>
      <point x="521" y="-16" type="curve" smooth="yes"/>
      <point x="514" y="-16" type="line"/>
      <point x="491" y="-16" type="line" smooth="yes"/>
      <point x="484" y="-16"/>
      <point x="477" y="-10"/>
      <point x="475" y="-3" type="curve" smooth="yes"/>
      <point x="333" y="781" type="line" smooth="yes"/>
      <point x="331" y="792"/>
      <point x="338" y="800"/>
      <point x="349" y="800" type="curve" smooth="yes"/>
      <point x="365" y="800" type="line" smooth="yes"/>
      <point x="376" y="800"/>
      <point x="383" y="792"/>
      <point x="381" y="781" type="curve" smooth="yes"/>
      <point x="240" y="-3" type="line" smooth="yes"/>
      <point x="238" y="-10"/>
      <point x="231" y="-16"/>
      <point x="224" y="-16" type="curve" smooth="yes"/>
      <point x="217" y="-16" type="line"/>
      <point x="194" y="-16" type="line" smooth="yes"/>
      <point x="187" y="-16"/>
      <point x="179" y="-10"/>
      <point x="178" y="-3" type="curve" smooth="yes"/>
      <point x="36" y="833" type="line" smooth="yes"/>
      <point x="34" y="844"/>
      <point x="42" y="852"/>
      <point x="52" y="852" type="curve" smooth="yes"/>
      <point x="69" y="852" type="line" smooth="yes"/>
      <point x="76" y="852"/>
      <point x="84" y="846"/>
      <point x="85" y="839" type="curve" smooth="yes"/>
      <point x="225" y="12" type="line" smooth="yes"/>
      <point x="228" y="-9"/>
      <point x="214" y="-17"/>
    </contour>
  </outline>
</glyph>
<glyph name="x" format="1">
  <advance width="616.0"/>
  <unicode hex="0078"/>
  <outline>
    <contour>
      <point x="80" y="23" type="curve" smooth="yes"/>
      <point x="489" y="843" type="line" smooth="yes"/>
      <point x="491" y="848"/>
      <point x="498" y="852"/>
      <point x="503" y="852" type="curve" smooth="yes"/>
      <point x="522" y="852" type="line" smooth="yes"/>
      <point x="536" y="852"/>
      <point x="543" y="842"/>
      <point x="536" y="829" type="curve" smooth="yes"/>
      <point x="127" y="9" type="line" smooth="yes"/>
      <point x="125" y="4"/>
      <point x="118" y="0"/>
      <point x="113" y="0" type="curve" smooth="yes"/>
      <point x="94" y="0" type="line" smooth="yes"/>
      <point x="80" y="0"/>
      <point x="73" y="10"/>
    </contour>
    <contour>
      <point x="127" y="843" type="curve" smooth="yes"/>
      <point x="536" y="23" type="line" smooth="yes"/>
      <point x="543" y="10"/>
      <point x="536" y="0"/>
      <point x="522" y="0" type="curve" smooth="yes"/>
      <point x="503" y="0" type="line" smooth="yes"/>
      <point x="498" y="0"/>
      <point x="491" y="4"/>
      <point x="489" y="9" type="curve" smooth="yes"/>
      <point x="80" y="829" type="line" smooth="yes"/>
      <point x="73" y="842"/>
      <point x="80" y="852"/>
      <point x="94" y="852" type="curve" smooth="yes"/>
      <point x="113" y="852" type="line" smooth="yes"/>
      <point x="118" y="852"/>
      <point x="125" y="848"/>
    </contour>
  </outline>
</glyph>
<glyph name="y" format="1">
  <advance width="576.0"/>
  <unicode hex="0079"/>
  <outline>
    <contour>
      <point x="101" y="840" type="curve" smooth="yes"/>
      <point x="312" y="7" type="line" smooth="yes"/>
      <point x="314" y="-2"/>
      <point x="308" y="-11"/>
      <point x="300" y="-13" type="curve" smooth="yes"/>
      <point x="284" y="-17" type="line" smooth="yes"/>
      <point x="275" y="-19"/>
      <point x="266" y="-13"/>
      <point x="264" y="-5" type="curve" smooth="yes"/>
      <point x="52" y="832" type="line" smooth="yes"/>
      <point x="49" y="843"/>
      <point x="57" y="852"/>
      <point x="68" y="852" type="curve" smooth="yes"/>
      <point x="85" y="852" type="line" smooth="yes"/>
      <point x="92" y="852"/>
      <point x="99" y="847"/>
    </contour>
    <contour>
      <point x="146" y="-460" type="curve" smooth="yes"/>
      <point x="475" y="840" type="line" smooth="yes"/>
      <point x="477" y="847"/>
      <point x="484" y="852"/>
      <point x="491" y="852" type="curve" smooth="yes"/>
      <point x="508" y="852" type="line" smooth="yes"/>
      <point x="519" y="852"/>
      <point x="527" y="843"/>
      <point x="524" y="832" type="curve" smooth="yes"/>
      <point x="195" y="-468" type="line" smooth="yes"/>
      <point x="193" y="-475"/>
      <point x="186" y="-480"/>
      <point x="179" y="-480" type="curve" smooth="yes"/>
      <point x="162" y="-480" type="line" smooth="yes"/>
      <point x="151" y="-480"/>
      <point x="143" y="-470"/>
    </contour>
  </outline>
</glyph>
<glyph name="z" format="1">
  <advance width="616.0"/>
  <unicode hex="007A"/>
  <outline>
    <contour>
      <point x="96" y="852" type="curve" smooth="yes"/>
      <point x="533" y="852" type="line" smooth="yes"/>
      <point x="548" y="852"/>
      <point x="554" y="841"/>
      <point x="547" y="829" type="curve" smooth="yes"/>
      <point x="117" y="13" type="line" smooth="yes"/>
      <point x="110" y="-2"/>
      <point x="98" y="-1"/>
      <point x="89" y="13" type="curve" smooth="yes"/>
      <point x="82" y="24" type="line" smooth="yes"/>
      <point x="74" y="37"/>
      <point x="81" y="48"/>
      <point x="96" y="48" type="curve" smooth="yes"/>
      <point x="520" y="48" type="line" smooth="yes"/>
      <point x="529" y="48"/>
      <point x="536" y="41"/>
      <point x="536" y="32" type="curve" smooth="yes"/>
      <point x="536" y="16" type="line" smooth="yes"/>
      <point x="536" y="7"/>
      <point x="529" y="0"/>
      <point x="520" y="0" type="curve" smooth="yes"/>
      <point x="96" y="0" type="line"/>
      <point x="83" y="0" type="line" smooth="yes"/>
      <point x="68" y="0"/>
      <point x="63" y="11"/>
      <point x="69" y="23" type="curve" smooth="yes"/>
      <point x="499" y="839" type="line" smooth="yes"/>
      <point x="507" y="854"/>
      <point x="518" y="854"/>
      <point x="527" y="839" type="curve" smooth="yes"/>
      <point x="534" y="828" type="line" smooth="yes"/>
      <point x="543" y="813"/>
      <point x="535" y="804"/>
      <point x="520" y="804" type="curve" smooth="yes"/>
      <point x="96" y="804" type="line" smooth="yes"/>
      <point x="87" y="804"/>
      <point x="80" y="811"/>
      <point x="80" y="820" type="curve" smooth="yes"/>
      <point x="80" y="836" type="line" smooth="yes"/>
      <point x="80" y="845"/>
      <point x="87" y="852"/>
    </contour>
  </outline>
</glyph>
<glyph name="currency" format="1">
  <advance width="677"/>
  <unicode hex="00A4"/>
  <outline>
    <contour>
      <point x="110" y="242" type="line" smooth="yes"/>
      <point x="110" y="116"/>
      <point x="212" y="14"/>
      <point x="338" y="14" type="curve" smooth="yes"/>
      <point x="464" y="14"/>
      <point x="566" y="116"/>
      <point x="566" y="242" type="curve" smooth="yes"/>
      <point x="566" y="610" type="line" smooth="yes"/>
      <point x="566" y="736"/>
      <point x="464" y="838"/>
      <point x="338" y="838" type="curve" smooth="yes"/>
      <point x="212" y="838"/>
      <point x="110" y="736"/>
      <point x="110" y="610" type="curve" smooth="yes"/>
    </contour>
    <contour>
      <point x="142" y="242" type="curve" smooth="yes"/>
      <point x="142" y="610" type="line" smooth="yes"/>
      <point x="142" y="718"/>
      <point x="230" y="806"/>
      <point x="338" y="806" type="curve" smooth="yes"/>
      <point x="446" y="806"/>
      <point x="534" y="718"/>
      <point x="534" y="610" type="curve" smooth="yes"/>
      <point x="534" y="242" type="line" smooth="yes"/>
      <point x="534" y="134"/>
      <point x="446" y="46"/>
      <point x="338" y="46" type="curve" smooth="yes"/>
      <point x="230" y="46"/>
      <point x="142" y="134"/>
    </contour>
    <contour>
      <point x="85" y="27" type="line" smooth="yes"/>
      <point x="79" y="21"/>
      <point x="79" y="11"/>
      <point x="85" y="5" type="curve" smooth="yes"/>
      <point x="91" y="-1"/>
      <point x="101" y="-1"/>
      <point x="107" y="5" type="curve" smooth="yes"/>
      <point x="185" y="83" type="line" smooth="yes"/>
      <point x="191" y="89"/>
      <point x="191" y="99"/>
      <point x="185" y="105" type="curve" smooth="yes"/>
      <point x="179" y="111"/>
      <point x="169" y="111"/>
      <point x="163" y="105" type="curve" smooth="yes"/>
    </contour>
    <contour>
      <point x="162" y="748" type="line" smooth="yes"/>
      <point x="168" y="742"/>
      <point x="178" y="742"/>
      <point x="184" y="748" type="curve" smooth="yes"/>
      <point x="190" y="754"/>
      <point x="190" y="764"/>
      <point x="184" y="770" type="curve" smooth="yes"/>
      <point x="107" y="847" type="line" smooth="yes"/>
      <point x="101" y="853"/>
      <point x="91" y="853"/>
      <point x="85" y="847" type="curve" smooth="yes"/>
      <point x="79" y="841"/>
      <point x="79" y="831"/>
      <point x="85" y="825" type="curve" smooth="yes"/>
    </contour>
    <contour>
      <point x="591" y="825" type="line" smooth="yes"/>
      <point x="597" y="831"/>
      <point x="597" y="841"/>
      <point x="591" y="847" type="curve" smooth="yes"/>
      <point x="585" y="853"/>
      <point x="575" y="853"/>
      <point x="569" y="847" type="curve" smooth="yes"/>
      <point x="491" y="769" type="line" smooth="yes"/>
      <point x="485" y="763"/>
      <point x="485" y="753"/>
      <point x="491" y="747" type="curve" smooth="yes"/>
      <point x="497" y="741"/>
      <point x="507" y="741"/>
      <point x="513" y="747" type="curve" smooth="yes"/>
    </contour>
    <contour>
      <point x="513" y="105" type="line" smooth="yes"/>
      <point x="507" y="111"/>
      <point x="497" y="111"/>
      <point x="491" y="105" type="curve" smooth="yes"/>
      <point x="485" y="99"/>
      <point x="485" y="89"/>
      <point x="491" y="83" type="curve" smooth="yes"/>
      <point x="569" y="4" type="line" smooth="yes"/>
      <point x="575" y="-2"/>
      <point x="585" y="-2"/>
      <point x="591" y="4" type="curve" smooth="yes"/>
      <point x="597" y="10"/>
      <point x="597" y="20"/>
      <point x="591" y="26" type="curve" smooth="yes"/>
    </contour>
  </outline>
</glyph>
<glyph name="yen" format="1">
  <advance width="596.0"/>
  <unicode hex="00A5"/>
  <outline>
    <contour>
      <point x="111" y="1205" type="line" smooth="yes"/>
      <point x="109" y="1213"/>
      <point x="99" y="1218"/>
      <point x="91" y="1215" type="curve" smooth="yes"/>
      <point x="83" y="1213"/>
      <point x="78" y="1203"/>
      <point x="81" y="1195" type="curve" smooth="yes"/>
      <point x="293" y="521" type="line" smooth="yes"/>
      <point x="301" y="494"/>
      <point x="315" y="494"/>
      <point x="323" y="521" type="curve" smooth="yes"/>
      <point x="535" y="1195" type="line" smooth="yes"/>
      <point x="538" y="1203"/>
      <point x="533" y="1213"/>
      <point x="525" y="1215" type="curve" smooth="yes"/>
      <point x="517" y="1218"/>
      <point x="507" y="1213"/>
      <point x="505" y="1205" type="curve" smooth="yes"/>
      <point x="293" y="531" type="line"/>
      <point x="323" y="531" type="line"/>
    </contour>
    <contour>
      <point x="292" y="16" type="line" smooth="yes"/>
      <point x="292" y="7"/>
      <point x="299" y="0"/>
      <point x="308" y="0" type="curve" smooth="yes"/>
      <point x="317" y="0"/>
      <point x="324" y="7"/>
      <point x="324" y="16" type="curve" smooth="yes"/>
      <point x="324" y="526" type="line" smooth="yes"/>
      <point x="324" y="535"/>
      <point x="317" y="542"/>
      <point x="308" y="542" type="curve" smooth="yes"/>
      <point x="299" y="542"/>
      <point x="292" y="535"/>
      <point x="292" y="526" type="curve" smooth="yes"/>
    </contour>
    <contour>
      <point x="187" y="442" type="line" smooth="yes"/>
      <point x="178" y="442"/>
      <point x="171" y="435"/>
      <point x="171" y="426" type="curve" smooth="yes"/>
      <point x="171" y="417"/>
      <point x="178" y="410"/>
      <point x="187" y="410" type="curve" smooth="yes"/>
      <point x="422" y="410" type="line" smooth="yes"/>
      <point x="431" y="410"/>
      <point x="438" y="417"/>
      <point x="438" y="426" type="curve" smooth="yes"/>
      <point x="438" y="435"/>
      <point x="431" y="442"/>
      <point x="422" y="442" type="curve" smooth="yes"/>
    </contour>
    <contour>
      <point x="187" y="362" type="line" smooth="yes"/>
      <point x="178" y="362"/>
      <point x="171" y="355"/>
      <point x="171" y="346" type="curve" smooth="yes"/>
      <point x="171" y="337"/>
      <point x="178" y="330"/>
      <point x="187" y="330" type="curve" smooth="yes"/>
      <point x="422" y="330" type="line" smooth="yes"/>
      <point x="431" y="330"/>
      <point x="438" y="337"/>
      <point x="438" y="346" type="curve" smooth="yes"/>
      <point x="438" y="355"/>
      <point x="431" y="362"/>
      <point x="422" y="362" type="curve" smooth="yes"/>
    </contour>
  </outline>
</glyph>
<glyph name="ordfeminine" format="1">
  <advance width="498"/>
  <unicode hex="00AA"/>
  <outline>
    <contour>
      <point x="378" y="1192" type="curve" smooth="yes"/>
      <point x="378" y="1245"/>
      <point x="333" y="1290"/>
      <point x="280" y="1290" type="curve" smooth="yes"/>
      <point x="220" y="1290" type="line" smooth="yes"/>
      <point x="166" y="1290"/>
      <point x="120" y="1246"/>
      <point x="120" y="1192" type="curve" smooth="yes"/>
      <point x="120" y="1162" type="line" smooth="yes"/>
      <point x="120" y="1108"/>
      <point x="166" y="1062"/>
      <point x="220" y="1062" type="curve" smooth="yes"/>
      <point x="280" y="1062" type="line" smooth="yes"/>
      <point x="333" y="1062"/>
      <point x="378" y="1107"/>
      <point x="378" y="1162" type="curve" smooth="yes"/>
      <point x="378" y="1294" type="line" smooth="yes"/>
      <point x="378" y="1347"/>
      <point x="333" y="1392"/>
      <point x="280" y="1392" type="curve" smooth="yes"/>
      <point x="220" y="1392" type="line" smooth="yes"/>
      <point x="211" y="1392"/>
      <point x="204" y="1399"/>
      <point x="204" y="1408" type="curve" smooth="yes"/>
      <point x="204" y="1424" type="line" smooth="yes"/>
      <point x="204" y="1433"/>
      <point x="211" y="1440"/>
      <point x="220" y="1440" type="curve" smooth="yes"/>
      <point x="280" y="1440" type="line" smooth="yes"/>
      <point x="359" y="1440"/>
      <point x="426" y="1373"/>
      <point x="426" y="1294" type="curve" smooth="yes"/>
      <point x="426" y="1162" type="line" smooth="yes"/>
      <point x="426" y="1081"/>
      <point x="358" y="1014"/>
      <point x="280" y="1014" type="curve" smooth="yes"/>
      <point x="220" y="1014" type="line" smooth="yes"/>
      <point x="140" y="1014"/>
      <point x="72" y="1082"/>
      <point x="72" y="1162" type="curve" smooth="yes"/>
      <point x="72" y="1192" type="line" smooth="yes"/>
      <point x="72" y="1272"/>
      <point x="140" y="1338"/>
      <point x="220" y="1338" type="curve" smooth="yes"/>
      <point x="280" y="1338" type="line" smooth="yes"/>
      <point x="359" y="1338"/>
      <point x="426" y="1271"/>
      <point x="426" y="1192" type="curve" smooth="yes"/>
      <point x="426" y="1183"/>
      <point x="419" y="1176"/>
      <point x="410" y="1176" type="curve" smooth="yes"/>
      <point x="394" y="1176" type="line" smooth="yes"/>
      <point x="385" y="1176"/>
      <point x="378" y="1183"/>
    </contour>
  </outline>
</glyph>
<glyph name="logicalnot" format="1">
  <advance width="616.0"/>
  <unicode hex="00AC"/>
  <outline>
    <contour>
      <point x="96" y="442" type="line" smooth="yes"/>
      <point x="87" y="442"/>
      <point x="80" y="435"/>
      <point x="80" y="426" type="curve" smooth="yes"/>
      <point x="80" y="417"/>
      <point x="87" y="410"/>
      <point x="96" y="410" type="curve" smooth="yes"/>
      <point x="520" y="410" type="line"/>
      <point x="504" y="426" type="line"/>
      <point x="504" y="214" type="line" smooth="yes"/>
      <point x="504" y="205"/>
      <point x="511" y="198"/>
      <point x="520" y="198" type="curve" smooth="yes"/>
      <point x="529" y="198"/>
      <point x="536" y="205"/>
      <point x="536" y="214" type="curve" smooth="yes"/>
      <point x="536" y="426" type="line" smooth="yes"/>
      <point x="536" y="435"/>
      <point x="529" y="442"/>
      <point x="520" y="442" type="curve" smooth="yes"/>
    </contour>
  </outline>
</glyph>
<glyph name="degree" format="1">
  <advance width="438.0"/>
  <unicode hex="00B0"/>
  <note>
  </note>
  <outline>
    <contour>
      <point x="220" y="942" type="curve" smooth="yes"/>
      <point x="294" y="942"/>
      <point x="358" y="1006"/>
      <point x="358" y="1082" type="curve" smooth="yes"/>
      <point x="358" y="1156"/>
      <point x="294" y="1220"/>
      <point x="220" y="1220" type="curve" smooth="yes"/>
      <point x="144" y="1220"/>
      <point x="80" y="1156"/>
      <point x="80" y="1082" type="curve" smooth="yes"/>
      <point x="80" y="1006"/>
      <point x="144" y="942"/>
    </contour>
    <contour>
      <point x="220" y="974" type="curve" smooth="yes"/>
      <point x="160" y="974"/>
      <point x="112" y="1022"/>
      <point x="112" y="1082" type="curve" smooth="yes"/>
      <point x="112" y="1140"/>
      <point x="160" y="1188"/>
      <point x="220" y="1188" type="curve" smooth="yes"/>
      <point x="278" y="1188"/>
      <point x="326" y="1140"/>
      <point x="326" y="1082" type="curve" smooth="yes"/>
      <point x="326" y="1022"/>
      <point x="278" y="974"/>
    </contour>
  </outline>
</glyph>
<glyph name="three.sup" format="1">
  <advance width="404"/>
  <unicode hex="00B3"/>
  <outline>
    <contour>
      <point x="203" y="973" type="curve" smooth="yes"/>
      <point x="194" y="973"/>
      <point x="187" y="966"/>
      <point x="187" y="957" type="curve" smooth="yes"/>
      <point x="187" y="948"/>
      <point x="194" y="941"/>
      <point x="203" y="941" type="curve" smooth="yes"/>
      <point x="270" y="941"/>
      <point x="325" y="996"/>
      <point x="325" y="1063" type="curve" smooth="yes"/>
      <point x="325" y="1110" type="line" smooth="yes"/>
      <point x="325" y="1178"/>
      <point x="270" y="1232"/>
      <point x="203" y="1232" type="curve" smooth="yes"/>
      <point x="201" y="1232" type="line" smooth="yes"/>
      <point x="134" y="1232"/>
      <point x="79" y="1178"/>
      <point x="79" y="1110" type="curve" smooth="yes"/>
      <point x="79" y="1101"/>
      <point x="86" y="1094"/>
      <point x="95" y="1094" type="curve" smooth="yes"/>
      <point x="104" y="1094"/>
      <point x="111" y="1101"/>
      <point x="111" y="1110" type="curve" smooth="yes"/>
      <point x="111" y="1160"/>
      <point x="152" y="1200"/>
      <point x="201" y="1200" type="curve" smooth="yes"/>
      <point x="203" y="1200" type="line" smooth="yes"/>
      <point x="252" y="1200"/>
      <point x="293" y="1160"/>
      <point x="293" y="1110" type="curve" smooth="yes"/>
      <point x="293" y="1063" type="line" smooth="yes"/>
      <point x="293" y="1014"/>
      <point x="252" y="973"/>
    </contour>
    <contour>
      <point x="111" y="706" type="curve" smooth="yes"/>
      <point x="111" y="715"/>
      <point x="104" y="722"/>
      <point x="95" y="722" type="curve" smooth="yes"/>
      <point x="86" y="722"/>
      <point x="79" y="715"/>
      <point x="79" y="706" type="curve" smooth="yes"/>
      <point x="79" y="639"/>
      <point x="134" y="584"/>
      <point x="201" y="584" type="curve" smooth="yes"/>
      <point x="203" y="584" type="line" smooth="yes"/>
      <point x="270" y="584"/>
      <point x="325" y="639"/>
      <point x="325" y="706" type="curve" smooth="yes"/>
      <point x="325" y="851" type="line" smooth="yes"/>
      <point x="325" y="919"/>
      <point x="270" y="973"/>
      <point x="203" y="973" type="curve" smooth="yes"/>
      <point x="194" y="973"/>
      <point x="187" y="966"/>
      <point x="187" y="957" type="curve" smooth="yes"/>
      <point x="187" y="948"/>
      <point x="194" y="941"/>
      <point x="203" y="941" type="curve" smooth="yes"/>
      <point x="252" y="941"/>
      <point x="293" y="901"/>
      <point x="293" y="851" type="curve" smooth="yes"/>
      <point x="293" y="706" type="line" smooth="yes"/>
      <point x="293" y="657"/>
      <point x="252" y="616"/>
      <point x="203" y="616" type="curve" smooth="yes"/>
      <point x="201" y="616" type="line" smooth="yes"/>
      <point x="152" y="616"/>
      <point x="111" y="657"/>
    </contour>
  </outline>
</glyph>
<glyph name="ordmasculine" format="1">
  <advance width="498"/>
  <unicode hex="00BA"/>
  <outline>
    <contour>
      <point x="220" y="1440" type="curve" smooth="yes"/>
      <point x="220" y="1440"/>
      <point x="280" y="1440"/>
      <point x="280" y="1440" type="curve" smooth="yes"/>
      <point x="359" y="1440"/>
      <point x="426" y="1373"/>
      <point x="426" y="1294" type="curve" smooth="yes"/>
      <point x="426" y="1162" type="line" smooth="yes"/>
      <point x="426" y="1081"/>
      <point x="358" y="1014"/>
      <point x="280" y="1014" type="curve" smooth="yes"/>
      <point x="220" y="1014" type="line" smooth="yes"/>
      <point x="140" y="1014"/>
      <point x="72" y="1082"/>
      <point x="72" y="1162" type="curve" smooth="yes"/>
      <point x="72" y="1294" type="line" smooth="yes"/>
      <point x="72" y="1378"/>
      <point x="140" y="1440"/>
    </contour>
    <contour>
      <point x="220" y="1392" type="curve" smooth="yes"/>
      <point x="166" y="1392"/>
      <point x="120" y="1350"/>
      <point x="120" y="1294" type="curve" smooth="yes"/>
      <point x="120" y="1162" type="line" smooth="yes"/>
      <point x="120" y="1108"/>
      <point x="166" y="1062"/>
      <point x="220" y="1062" type="curve" smooth="yes"/>
      <point x="280" y="1062" type="line" smooth="yes"/>
      <point x="333" y="1062"/>
      <point x="378" y="1107"/>
      <point x="378" y="1162" type="curve" smooth="yes"/>
      <point x="378" y="1294" type="line" smooth="yes"/>
      <point x="378" y="1347"/>
      <point x="333" y="1392"/>
      <point x="280" y="1392" type="curve" smooth="yes"/>
      <point x="280" y="1392"/>
      <point x="220" y="1392"/>
    </contour>
  </outline>
</glyph>
<glyph name="AE" format="1">
  <advance width="710"/>
  <unicode hex="00C6"/>
  <outline>
    <contour>
      <point x="299" y="570" type="curve" smooth="yes"/>
      <point x="542" y="570" type="line" smooth="yes"/>
      <point x="551" y="570"/>
      <point x="558" y="563"/>
      <point x="558" y="554" type="curve" smooth="yes"/>
      <point x="558" y="538" type="line" smooth="yes"/>
      <point x="558" y="529"/>
      <point x="551" y="522"/>
      <point x="542" y="522" type="curve" smooth="yes"/>
      <point x="299" y="522" type="line" smooth="yes"/>
      <point x="290" y="522"/>
      <point x="283" y="529"/>
      <point x="283" y="538" type="curve" smooth="yes"/>
      <point x="283" y="554" type="line" smooth="yes"/>
      <point x="283" y="563"/>
      <point x="290" y="570"/>
    </contour>
    <contour>
      <point x="622" y="1168" type="curve"/>
      <point x="296" y="1168" type="line" smooth="yes"/>
      <point x="320" y="1188" type="line"/>
      <point x="110" y="13" type="line" smooth="yes"/>
      <point x="108" y="6"/>
      <point x="101" y="0"/>
      <point x="94" y="0" type="curve" smooth="yes"/>
      <point x="78" y="0" type="line" smooth="yes"/>
      <point x="67" y="0"/>
      <point x="60" y="8"/>
      <point x="62" y="19" type="curve" smooth="yes"/>
      <point x="272" y="1196" type="line"/>
      <point x="275" y="1209"/>
      <point x="285" y="1216"/>
      <point x="296" y="1216" type="curve" smooth="yes"/>
      <point x="622" y="1216" type="line" smooth="yes"/>
      <point x="631" y="1216"/>
      <point x="638" y="1209"/>
      <point x="638" y="1200" type="curve" smooth="yes"/>
      <point x="638" y="1184" type="line" smooth="yes"/>
      <point x="638" y="1175"/>
      <point x="631" y="1168"/>
    </contour>
    <contour>
      <point x="137" y="292" type="curve" smooth="yes"/>
      <point x="293" y="292" type="line" smooth="yes"/>
      <point x="302" y="292"/>
      <point x="309" y="285"/>
      <point x="309" y="276" type="curve" smooth="yes"/>
      <point x="309" y="260" type="line" smooth="yes"/>
      <point x="309" y="251"/>
      <point x="302" y="244"/>
      <point x="293" y="244" type="curve" smooth="yes"/>
      <point x="137" y="244" type="line" smooth="yes"/>
      <point x="128" y="244"/>
      <point x="121" y="251"/>
      <point x="121" y="260" type="curve" smooth="yes"/>
      <point x="121" y="276" type="line" smooth="yes"/>
      <point x="121" y="285"/>
      <point x="128" y="292"/>
    </contour>
    <contour>
      <point x="622" y="0" type="curve" smooth="yes"/>
      <point x="298" y="0" type="line" smooth="yes"/>
      <point x="286" y="0"/>
      <point x="274" y="12"/>
      <point x="274" y="24" type="curve" smooth="yes"/>
      <point x="274" y="1187" type="line" smooth="yes"/>
      <point x="274" y="1196"/>
      <point x="281" y="1203"/>
      <point x="290" y="1203" type="curve" smooth="yes"/>
      <point x="306" y="1203" type="line" smooth="yes"/>
      <point x="315" y="1203"/>
      <point x="322" y="1196"/>
      <point x="322" y="1187" type="curve"/>
      <point x="322" y="24" type="line" smooth="yes"/>
      <point x="298" y="48" type="line"/>
      <point x="622" y="48" type="line" smooth="yes"/>
      <point x="631" y="48"/>
      <point x="638" y="41"/>
      <point x="638" y="32" type="curve" smooth="yes"/>
      <point x="638" y="16" type="line" smooth="yes"/>
      <point x="638" y="7"/>
      <point x="631" y="0"/>
    </contour>
  </outline>
</glyph>
<glyph name="Eth" format="1">
  <advance width="616.0"/>
  <unicode hex="00D0"/>
  <outline>
    <contour>
      <point x="228" y="522" type="line" smooth="yes"/>
      <point x="237" y="522"/>
      <point x="244" y="529"/>
      <point x="244" y="538" type="curve" smooth="yes"/>
      <point x="244" y="554" type="line" smooth="yes"/>
      <point x="244" y="563"/>
      <point x="237" y="570"/>
      <point x="228" y="570" type="curve" smooth="yes"/>
      <point x="16" y="570" type="line" smooth="yes"/>
      <point x="7" y="570"/>
      <point x="0" y="563"/>
      <point x="0" y="554" type="curve" smooth="yes"/>
      <point x="0" y="538" type="line" smooth="yes"/>
      <point x="0" y="529"/>
      <point x="7" y="522"/>
      <point x="16" y="522" type="curve" smooth="yes"/>
    </contour>
    <component base="D"/>
    <component base="D"/>
  </outline>
</glyph>
<glyph name="multiply" format="1">
  <advance width="617"/>
  <unicode hex="00D7"/>
  <outline>
    <contour>
      <point x="106" y="203" type="curve" smooth="yes"/>
      <point x="531" y="627" type="line" smooth="yes"/>
      <point x="537" y="633"/>
      <point x="537" y="643"/>
      <point x="531" y="649" type="curve" smooth="yes"/>
      <point x="525" y="655"/>
      <point x="515" y="655"/>
      <point x="509" y="649" type="curve" smooth="yes"/>
      <point x="84" y="225" type="line" smooth="yes"/>
      <point x="78" y="219"/>
      <point x="78" y="209"/>
      <point x="84" y="203" type="curve" smooth="yes"/>
      <point x="90" y="197"/>
      <point x="100" y="197"/>
    </contour>
    <contour>
      <point x="85" y="627" type="curve" smooth="yes"/>
      <point x="510" y="203" type="line" smooth="yes"/>
      <point x="516" y="197"/>
      <point x="526" y="197"/>
      <point x="532" y="203" type="curve" smooth="yes"/>
      <point x="538" y="209"/>
      <point x="538" y="219"/>
      <point x="532" y="225" type="curve" smooth="yes"/>
      <point x="107" y="649" type="line" smooth="yes"/>
      <point x="101" y="655"/>
      <point x="91" y="655"/>
      <point x="85" y="649" type="curve" smooth="yes"/>
      <point x="79" y="643"/>
      <point x="79" y="633"/>
    </contour>
  </outline>
</glyph>
<glyph name="Oslash" format="1">
  <advance width="616.0"/>
  <unicode hex="00D8"/>
  <outline>
    <contour>
      <point x="88" y="21" type="line" smooth="yes"/>
      <point x="84" y="9"/>
      <point x="91" y="0"/>
      <point x="103" y="0" type="curve" smooth="yes"/>
      <point x="120" y="0" type="line" smooth="yes"/>
      <point x="126" y="0"/>
      <point x="133" y="5"/>
      <point x="135" y="11" type="curve" smooth="yes"/>
      <point x="522" y="1179" type="line" smooth="yes"/>
      <point x="526" y="1191"/>
      <point x="519" y="1200"/>
      <point x="507" y="1200" type="curve" smooth="yes"/>
      <point x="490" y="1200" type="line" smooth="yes"/>
      <point x="484" y="1200"/>
      <point x="477" y="1195"/>
      <point x="475" y="1189" type="curve" smooth="yes"/>
    </contour>
    <component base="O"/>
    <component base="O"/>
  </outline>
</glyph>
<glyph name="Thorn" format="1">
  <advance width="616.0"/>
  <unicode hex="00DE"/>
  <outline>
    <contour>
      <point x="72" y="-160" type="line" smooth="yes"/>
      <point x="72" y="-169"/>
      <point x="79" y="-176"/>
      <point x="88" y="-176" type="curve" smooth="yes"/>
      <point x="104" y="-176" type="line" smooth="yes"/>
      <point x="113" y="-176"/>
      <point x="120" y="-169"/>
      <point x="120" y="-160" type="curve" smooth="yes"/>
      <point x="120" y="1200" type="line" smooth="yes"/>
      <point x="120" y="1209"/>
      <point x="113" y="1216"/>
      <point x="104" y="1216" type="curve" smooth="yes"/>
      <point x="88" y="1216" type="line" smooth="yes"/>
      <point x="79" y="1216"/>
      <point x="72" y="1209"/>
      <point x="72" y="1200" type="curve" smooth="yes"/>
    </contour>
    <contour>
      <point x="106" y="868" type="line" smooth="yes"/>
      <point x="97" y="868"/>
      <point x="90" y="861"/>
      <point x="90" y="852" type="curve" smooth="yes"/>
      <point x="90" y="836" type="line" smooth="yes"/>
      <point x="90" y="827"/>
      <point x="97" y="820"/>
      <point x="106" y="820" type="curve" smooth="yes"/>
      <point x="308" y="820" type="line" smooth="yes"/>
      <point x="412" y="820"/>
      <point x="496" y="736"/>
      <point x="496" y="632" type="curve" smooth="yes"/>
      <point x="496" y="228" type="line" smooth="yes"/>
      <point x="496" y="124"/>
      <point x="412" y="40"/>
      <point x="308" y="40" type="curve" smooth="yes"/>
      <point x="106" y="40" type="line" smooth="yes"/>
      <point x="97" y="40"/>
      <point x="90" y="33"/>
      <point x="90" y="24" type="curve" smooth="yes"/>
      <point x="90" y="8" type="line" smooth="yes"/>
      <point x="90" y="-1"/>
      <point x="97" y="-8"/>
      <point x="106" y="-8" type="curve" smooth="yes"/>
      <point x="308" y="-8" type="line" smooth="yes"/>
      <point x="438" y="-8"/>
      <point x="544" y="98"/>
      <point x="544" y="228" type="curve" smooth="yes"/>
      <point x="544" y="632" type="line" smooth="yes"/>
      <point x="544" y="762"/>
      <point x="438" y="868"/>
      <point x="308" y="868" type="curve" smooth="yes"/>
    </contour>
  </outline>
</glyph>
<glyph name="eth" format="1">
  <advance width="616"/>
  <unicode hex="00F0"/>
  <outline>
    <contour>
      <point x="414" y="1047" type="line" smooth="yes"/>
      <point x="406" y="1043"/>
      <point x="404" y="1032"/>
      <point x="408" y="1025" type="curve" smooth="yes"/>
      <point x="412" y="1017"/>
      <point x="423" y="1015"/>
      <point x="430" y="1019" type="curve" smooth="yes"/>
      <point x="580" y="1106" type="line" smooth="yes"/>
      <point x="588" y="1110"/>
      <point x="590" y="1121"/>
      <point x="586" y="1128" type="curve" smooth="yes"/>
      <point x="582" y="1136"/>
      <point x="571" y="1138"/>
      <point x="564" y="1134" type="curve" smooth="yes"/>
    </contour>
    <component base="partialdiff"/>
  </outline>
</glyph>
<glyph name="divide" format="1">
  <advance width="616.0"/>
  <unicode hex="00F7"/>
  <outline>
    <contour>
      <point x="306" y="282" type="curve" smooth="yes"/>
      <point x="318" y="282"/>
      <point x="330" y="294"/>
      <point x="330" y="306" type="curve" smooth="yes"/>
      <point x="330" y="318"/>
      <point x="318" y="330"/>
      <point x="306" y="330" type="curve" smooth="yes"/>
      <point x="294" y="330"/>
      <point x="282" y="318"/>
      <point x="282" y="306" type="curve" smooth="yes"/>
      <point x="282" y="294"/>
      <point x="294" y="282"/>
    </contour>
    <contour>
      <point x="306" y="522" type="curve" smooth="yes"/>
      <point x="318" y="522"/>
      <point x="330" y="534"/>
      <point x="330" y="546" type="curve" smooth="yes"/>
      <point x="330" y="558"/>
      <point x="318" y="570"/>
      <point x="306" y="570" type="curve" smooth="yes"/>
      <point x="294" y="570"/>
      <point x="282" y="558"/>
      <point x="282" y="546" type="curve" smooth="yes"/>
      <point x="282" y="534"/>
      <point x="294" y="522"/>
    </contour>
    <contour>
      <point x="520" y="410" type="line" smooth="yes"/>
      <point x="529" y="410"/>
      <point x="536" y="417"/>
      <point x="536" y="426" type="curve" smooth="yes"/>
      <point x="536" y="435"/>
      <point x="529" y="442"/>
      <point x="520" y="442" type="curve" smooth="yes"/>
      <point x="96" y="442" type="line" smooth="yes"/>
      <point x="87" y="442"/>
      <point x="80" y="435"/>
      <point x="80" y="426" type="curve" smooth="yes"/>
      <point x="80" y="417"/>
      <point x="87" y="410"/>
      <point x="96" y="410" type="curve" smooth="yes"/>
    </contour>
  </outline>
</glyph>
<glyph name="Hbar" format="1">
  <advance width="616.0"/>
  <unicode hex="0126"/>
  <outline>
    <contour>
      <point x="26" y="1018" type="line" smooth="yes"/>
      <point x="17" y="1018"/>
      <point x="10" y="1011"/>
      <point x="10" y="1002" type="curve" smooth="yes"/>
      <point x="10" y="986" type="line" smooth="yes"/>
      <point x="10" y="977"/>
      <point x="17" y="970"/>
      <point x="26" y="970" type="curve" smooth="yes"/>
      <point x="590" y="970" type="line" smooth="yes"/>
      <point x="599" y="970"/>
      <point x="606" y="977"/>
      <point x="606" y="986" type="curve" smooth="yes"/>
      <point x="606" y="1002" type="line" smooth="yes"/>
      <point x="606" y="1011"/>
      <point x="599" y="1018"/>
      <point x="590" y="1018" type="curve" smooth="yes"/>
    </contour>
    <component base="H"/>
    <component base="H"/>
  </outline>
</glyph>
<glyph name="dotlessi" format="1">
  <advance width="192.0"/>
  <unicode hex="0131"/>
  <outline>
    <contour>
      <point x="120" y="16" type="line" smooth="yes"/>
      <point x="120" y="7"/>
      <point x="113" y="0"/>
      <point x="104" y="0" type="curve" smooth="yes"/>
      <point x="88" y="0" type="line" smooth="yes"/>
      <point x="79" y="0"/>
      <point x="72" y="7"/>
      <point x="72" y="16" type="curve" smooth="yes"/>
      <point x="72" y="836" type="line" smooth="yes"/>
      <point x="72" y="845"/>
      <point x="79" y="852"/>
      <point x="88" y="852" type="curve" smooth="yes"/>
      <point x="104" y="852" type="line" smooth="yes"/>
      <point x="113" y="852"/>
      <point x="120" y="845"/>
      <point x="120" y="836" type="curve" smooth="yes"/>
    </contour>
  </outline>
</glyph>
<glyph name="Lslash" format="1">
  <advance width="616.0"/>
  <unicode hex="0141"/>
  <outline>
    <contour>
      <point x="9" y="832" type="line" smooth="yes"/>
      <point x="1" y="827"/>
      <point x="-1" y="818"/>
      <point x="3" y="810" type="curve" smooth="yes"/>
      <point x="11" y="796" type="line" smooth="yes"/>
      <point x="16" y="788"/>
      <point x="25" y="786"/>
      <point x="33" y="790" type="curve" smooth="yes"/>
      <point x="183" y="877" type="line" smooth="yes"/>
      <point x="191" y="882"/>
      <point x="193" y="891"/>
      <point x="189" y="899" type="curve" smooth="yes"/>
      <point x="181" y="913" type="line" smooth="yes"/>
      <point x="176" y="921"/>
      <point x="167" y="923"/>
      <point x="159" y="919" type="curve" smooth="yes"/>
    </contour>
    <component base="L"/>
    <component base="L"/>
  </outline>
</glyph>
<glyph name="OE" format="1">
  <advance width="976"/>
  <unicode hex="0152"/>
  <outline>
    <contour>
      <point x="880" y="0" type="curve" smooth="yes"/>
      <point x="512" y="0" type="line" smooth="yes"/>
      <point x="503" y="0"/>
      <point x="496" y="7"/>
      <point x="496" y="16" type="curve" smooth="yes"/>
      <point x="496" y="1184" type="line" smooth="yes"/>
      <point x="496" y="1193"/>
      <point x="503" y="1200"/>
      <point x="512" y="1200" type="curve" smooth="yes"/>
      <point x="880" y="1200" type="line" smooth="yes"/>
      <point x="889" y="1200"/>
      <point x="896" y="1193"/>
      <point x="896" y="1184" type="curve" smooth="yes"/>
      <point x="896" y="1168" type="line" smooth="yes"/>
      <point x="896" y="1159"/>
      <point x="889" y="1152"/>
      <point x="880" y="1152" type="curve"/>
      <point x="520" y="1152" type="line" smooth="yes"/>
      <point x="544" y="1176" type="line"/>
      <point x="544" y="24" type="line" smooth="yes"/>
      <point x="520" y="48" type="line"/>
      <point x="880" y="48" type="line" smooth="yes"/>
      <point x="889" y="48"/>
      <point x="896" y="41"/>
      <point x="896" y="32" type="curve" smooth="yes"/>
      <point x="896" y="16" type="line" smooth="yes"/>
      <point x="896" y="7"/>
      <point x="889" y="0"/>
    </contour>
    <contour>
      <point x="531" y="570" type="curve" smooth="yes"/>
      <point x="700" y="570" type="line" smooth="yes"/>
      <point x="709" y="570"/>
      <point x="716" y="563"/>
      <point x="716" y="554" type="curve" smooth="yes"/>
      <point x="716" y="538" type="line" smooth="yes"/>
      <point x="716" y="529"/>
      <point x="709" y="522"/>
      <point x="700" y="522" type="curve" smooth="yes"/>
      <point x="531" y="522" type="line" smooth="yes"/>
      <point x="522" y="522"/>
      <point x="515" y="529"/>
      <point x="515" y="538" type="curve" smooth="yes"/>
      <point x="515" y="554" type="line" smooth="yes"/>
      <point x="515" y="563"/>
      <point x="522" y="570"/>
    </contour>
    <contour>
      <point x="308" y="32" type="curve" smooth="yes"/>
      <point x="400" y="32"/>
      <point x="478" y="98"/>
      <point x="493" y="186" type="curve" smooth="yes"/>
      <point x="495" y="193"/>
      <point x="502" y="199"/>
      <point x="509" y="199" type="curve" smooth="yes"/>
      <point x="525" y="199" type="line" smooth="yes"/>
      <point x="535" y="199"/>
      <point x="543" y="191"/>
      <point x="541" y="180" type="curve" smooth="yes"/>
      <point x="521" y="69"/>
      <point x="424" y="-16"/>
      <point x="308" y="-16" type="curve" smooth="yes"/>
      <point x="178" y="-16"/>
      <point x="72" y="90"/>
      <point x="72" y="220" type="curve" smooth="yes"/>
      <point x="72" y="980" type="line" smooth="yes"/>
      <point x="72" y="1110"/>
      <point x="178" y="1216"/>
      <point x="308" y="1216" type="curve" smooth="yes"/>
      <point x="424" y="1216"/>
      <point x="521" y="1131"/>
      <point x="541" y="1020" type="curve" smooth="yes"/>
      <point x="543" y="1009"/>
      <point x="535" y="1001"/>
      <point x="525" y="1001" type="curve" smooth="yes"/>
      <point x="509" y="1001" type="line" smooth="yes"/>
      <point x="502" y="1001"/>
      <point x="495" y="1007"/>
      <point x="493" y="1014" type="curve" smooth="yes"/>
      <point x="478" y="1102"/>
      <point x="400" y="1168"/>
      <point x="308" y="1168" type="curve" smooth="yes"/>
      <point x="204" y="1168"/>
      <point x="120" y="1084"/>
      <point x="120" y="980" type="curve" smooth="yes"/>
      <point x="120" y="220" type="line" smooth="yes"/>
      <point x="120" y="116"/>
      <point x="204" y="32"/>
    </contour>
  </outline>
</glyph>
<glyph name="longs" format="1">
  <advance width="324.0"/>
  <unicode hex="017F"/>
  <outline>
    <contour>
      <point x="308" y="1216" type="curve" smooth="yes"/>
      <point x="182" y="1216"/>
      <point x="80" y="1114"/>
      <point x="80" y="988" type="curve"/>
      <point x="80" y="16" type="line" smooth="yes"/>
      <point x="80" y="8"/>
      <point x="88" y="0"/>
      <point x="96" y="0" type="curve" smooth="yes"/>
      <point x="104" y="0"/>
      <point x="112" y="8"/>
      <point x="112" y="16" type="curve"/>
      <point x="112" y="988" type="line"/>
      <point x="112" y="1096"/>
      <point x="200" y="1184"/>
      <point x="308" y="1184" type="curve" smooth="yes"/>
      <point x="316" y="1184"/>
      <point x="324" y="1192"/>
      <point x="324" y="1200" type="curve" smooth="yes"/>
      <point x="324" y="1208"/>
      <point x="316" y="1216"/>
    </contour>
  </outline>
</glyph>
<glyph name="dotlessj" format="1">
  <advance width="196.0"/>
  <unicode hex="0237"/>
  <outline>
    <contour>
      <point x="120" y="16" type="line" smooth="yes"/>
      <point x="120" y="-50"/>
      <point x="93" y="-109"/>
      <point x="50" y="-150" type="curve" smooth="yes"/>
      <point x="44" y="-157"/>
      <point x="34" y="-156"/>
      <point x="28" y="-150" type="curve" smooth="yes"/>
      <point x="17" y="-139" type="line" smooth="yes"/>
      <point x="10" y="-133"/>
      <point x="10" y="-123"/>
      <point x="17" y="-117" type="curve" smooth="yes"/>
      <point x="51" y="-83"/>
      <point x="72" y="-36"/>
      <point x="72" y="16" type="curve" smooth="yes"/>
      <point x="72" y="16"/>
      <point x="72" y="836"/>
      <point x="72" y="836" type="curve" smooth="yes"/>
      <point x="72" y="845"/>
      <point x="79" y="852"/>
      <point x="88" y="852" type="curve" smooth="yes"/>
      <point x="104" y="852" type="line" smooth="yes"/>
      <point x="113" y="852"/>
      <point x="120" y="845"/>
      <point x="120" y="836" type="curve" smooth="yes"/>
    </contour>
  </outline>
</glyph>
<glyph name="ezh" format="1">
  <advance width="618"/>
  <unicode hex="0292"/>
  <outline>
    <contour>
      <point x="308" y="548" type="curve" smooth="yes"/>
      <point x="299" y="548"/>
      <point x="292" y="541"/>
      <point x="292" y="532" type="curve" smooth="yes"/>
      <point x="292" y="523"/>
      <point x="299" y="516"/>
      <point x="308" y="516" type="curve" smooth="yes"/>
      <point x="415" y="516"/>
      <point x="504" y="428"/>
      <point x="504" y="320" type="curve" smooth="yes"/>
      <point x="504" y="16" type="line" smooth="yes"/>
      <point x="504" y="-91"/>
      <point x="415" y="-180"/>
      <point x="308" y="-180" type="curve" smooth="yes"/>
      <point x="200" y="-180"/>
      <point x="112" y="-91"/>
      <point x="112" y="16" type="curve" smooth="yes"/>
      <point x="112" y="25"/>
      <point x="105" y="32"/>
      <point x="96" y="32" type="curve" smooth="yes"/>
      <point x="87" y="32"/>
      <point x="80" y="25"/>
      <point x="80" y="16" type="curve" smooth="yes"/>
      <point x="80" y="-109"/>
      <point x="182" y="-212"/>
      <point x="308" y="-212" type="curve" smooth="yes"/>
      <point x="433" y="-212"/>
      <point x="536" y="-109"/>
      <point x="536" y="16" type="curve" smooth="yes"/>
      <point x="536" y="320" type="line" smooth="yes"/>
      <point x="536" y="446"/>
      <point x="433" y="548"/>
    </contour>
    <contour>
      <point x="96" y="852" type="line" smooth="yes"/>
      <point x="87" y="852"/>
      <point x="80" y="845"/>
      <point x="80" y="836" type="curve" smooth="yes"/>
      <point x="80" y="827"/>
      <point x="87" y="820"/>
      <point x="96" y="820" type="curve" smooth="yes"/>
      <point x="520" y="820" type="line"/>
      <point x="507" y="845" type="line"/>
      <point x="295" y="541" type="line" smooth="yes"/>
      <point x="290" y="534"/>
      <point x="292" y="524"/>
      <point x="299" y="519" type="curve" smooth="yes"/>
      <point x="306" y="514"/>
      <point x="316" y="516"/>
      <point x="321" y="523" type="curve" smooth="yes"/>
      <point x="533" y="827" type="line" smooth="yes"/>
      <point x="543" y="841"/>
      <point x="537" y="852"/>
      <point x="520" y="852" type="curve" smooth="yes"/>
    </contour>
  </outline>
</glyph>
<glyph name="dotaccent" format="1">
  <advance width="200.0"/>
  <unicode hex="02D9"/>
  <outline>
    <contour>
      <point x="88" y="1290" type="line" smooth="yes"/>
      <point x="79" y="1290"/>
      <point x="72" y="1297"/>
      <point x="72" y="1306" type="curve" smooth="yes"/>
      <point x="72" y="1330" type="line" smooth="yes"/>
      <point x="72" y="1339"/>
      <point x="79" y="1346"/>
      <point x="88" y="1346" type="curve" smooth="yes"/>
      <point x="112" y="1346" type="line" smooth="yes"/>
      <point x="121" y="1346"/>
      <point x="128" y="1339"/>
      <point x="128" y="1330" type="curve" smooth="yes"/>
      <point x="128" y="1306" type="line" smooth="yes"/>
      <point x="128" y="1297"/>
      <point x="121" y="1290"/>
      <point x="112" y="1290" type="curve" smooth="yes"/>
    </contour>
  </outline>
</glyph>
<glyph name="Delta" format="1">
  <advance width="843"/>
  <unicode hex="0394"/>
  <outline>
    <contour>
      <point x="723" y="48" type="line"/>
      <point x="708" y="26" type="line"/>
      <point x="406" y="817" type="line"/>
      <point x="436" y="817" type="line"/>
      <point x="134" y="26" type="line"/>
      <point x="119" y="48" type="line"/>
    </contour>
    <contour>
      <point x="746" y="0" type="curve" smooth="yes"/>
      <point x="96" y="0" type="line" smooth="yes"/>
      <point x="83" y="0"/>
      <point x="76" y="10"/>
      <point x="81" y="22" type="curve" smooth="yes"/>
      <point x="406" y="872" type="line" smooth="yes"/>
      <point x="413" y="891"/>
      <point x="429" y="891"/>
      <point x="436" y="872" type="curve" smooth="yes"/>
      <point x="761" y="22" type="line" smooth="yes"/>
      <point x="766" y="10"/>
      <point x="759" y="0"/>
    </contour>
  </outline>
</glyph>
<glyph name="Omega" format="1">
  <advance width="616"/>
  <unicode hex="03A9"/>
  <outline>
    <contour>
      <point x="536" y="-28" type="line" smooth="yes"/>
      <point x="545" y="-28"/>
      <point x="552" y="-35"/>
      <point x="552" y="-44" type="curve" smooth="yes"/>
      <point x="552" y="-60" type="line" smooth="yes"/>
      <point x="552" y="-69"/>
      <point x="545" y="-76"/>
      <point x="536" y="-76" type="curve" smooth="yes"/>
      <point x="380" y="-76" type="line" smooth="yes"/>
      <point x="371" y="-76"/>
      <point x="364" y="-69"/>
      <point x="364" y="-60" type="curve" smooth="yes"/>
      <point x="364" y="168" type="line" smooth="yes"/>
      <point x="364" y="177"/>
      <point x="371" y="184"/>
      <point x="380" y="184" type="curve" smooth="yes"/>
      <point x="396" y="184" type="line" smooth="yes"/>
      <point x="446" y="184"/>
      <point x="488" y="226"/>
      <point x="488" y="276" type="curve" smooth="yes"/>
      <point x="488" y="1004" type="line" smooth="yes"/>
      <point x="488" y="1103"/>
      <point x="407" y="1184"/>
      <point x="308" y="1184" type="curve" smooth="yes"/>
      <point x="209" y="1184"/>
      <point x="128" y="1103"/>
      <point x="128" y="1004" type="curve" smooth="yes"/>
      <point x="128" y="276" type="line" smooth="yes"/>
      <point x="128" y="226"/>
      <point x="170" y="184"/>
      <point x="220" y="184" type="curve" smooth="yes"/>
      <point x="236" y="184" type="line" smooth="yes"/>
      <point x="245" y="184"/>
      <point x="252" y="177"/>
      <point x="252" y="168" type="curve" smooth="yes"/>
      <point x="252" y="-60" type="line" smooth="yes"/>
      <point x="252" y="-69"/>
      <point x="245" y="-76"/>
      <point x="236" y="-76" type="curve" smooth="yes"/>
      <point x="80" y="-76" type="line" smooth="yes"/>
      <point x="71" y="-76"/>
      <point x="64" y="-69"/>
      <point x="64" y="-60" type="curve" smooth="yes"/>
      <point x="64" y="-44" type="line" smooth="yes"/>
      <point x="64" y="-35"/>
      <point x="71" y="-28"/>
      <point x="80" y="-28" type="curve" smooth="yes"/>
      <point x="220" y="-28" type="line"/>
      <point x="204" y="-44" type="line"/>
      <point x="204" y="152" type="line"/>
      <point x="220" y="136" type="line"/>
      <point x="143" y="136"/>
      <point x="80" y="199"/>
      <point x="80" y="276" type="curve" smooth="yes"/>
      <point x="80" y="1004" type="line" smooth="yes"/>
      <point x="80" y="1130"/>
      <point x="182" y="1232"/>
      <point x="308" y="1232" type="curve" smooth="yes"/>
      <point x="434" y="1232"/>
      <point x="536" y="1130"/>
      <point x="536" y="1004" type="curve" smooth="yes"/>
      <point x="536" y="276" type="line" smooth="yes"/>
      <point x="536" y="199"/>
      <point x="473" y="136"/>
      <point x="396" y="136" type="curve"/>
      <point x="412" y="152" type="line"/>
      <point x="412" y="-44" type="line"/>
      <point x="396" y="-28" type="line"/>
    </contour>
  </outline>
</glyph>
<glyph name="emdash" format="1">
  <advance width="2000"/>
  <unicode hex="2014"/>
  <outline>
    <contour>
      <point x="96" y="442" type="line" smooth="yes"/>
      <point x="87" y="442"/>
      <point x="80" y="435"/>
      <point x="80" y="426" type="curve" smooth="yes"/>
      <point x="80" y="417"/>
      <point x="87" y="410"/>
      <point x="96" y="410" type="curve" smooth="yes"/>
      <point x="1904" y="410" type="line" smooth="yes"/>
      <point x="1913" y="410"/>
      <point x="1920" y="417"/>
      <point x="1920" y="426" type="curve" smooth="yes"/>
      <point x="1920" y="435"/>
      <point x="1913" y="442"/>
      <point x="1904" y="442" type="curve" smooth="yes"/>
    </contour>
  </outline>
</glyph>
<glyph name="quotesinglbase" format="1">
  <advance width="184"/>
  <unicode hex="201A"/>
  <outline>
    <contour>
      <point x="91" y="-103" type="curve"/>
      <point x="126" y="-31" type="line" smooth="yes"/>
      <point x="131" y="-21"/>
      <point x="128.117647059" y="-5.88235294118"/>
      <point x="114" y="0" type="curve" smooth="yes"/>
      <point x="102" y="6"/>
      <point x="84" y="-3"/>
      <point x="80" y="-15" type="curve" smooth="yes"/>
      <point x="61" y="-91" type="line" smooth="yes"/>
      <point x="58.696159519" y="-100.215361924"/>
      <point x="62.9321400446" y="-108.233035011"/>
      <point x="70" y="-110" type="curve" smooth="yes"/>
      <point x="78" y="-114"/>
      <point x="87" y="-111"/>
    </contour>
  </outline>
</glyph>
<glyph name="eight.sup" format="1">
  <advance width="404"/>
  <unicode hex="2078"/>
  <outline>
    <contour>
      <point x="193" y="936" type="curve" smooth="yes"/>
      <point x="202" y="937"/>
      <point x="209" y="945"/>
      <point x="208" y="953" type="curve" smooth="yes"/>
      <point x="207" y="962"/>
      <point x="199" y="969"/>
      <point x="191" y="968" type="curve" smooth="yes"/>
      <point x="128" y="962"/>
      <point x="80" y="909"/>
      <point x="80" y="846" type="curve" smooth="yes"/>
      <point x="80" y="706" type="line" smooth="yes"/>
      <point x="80" y="639"/>
      <point x="135" y="584"/>
      <point x="202" y="584" type="curve" smooth="yes"/>
      <point x="203" y="584" type="line" smooth="yes"/>
      <point x="270" y="584"/>
      <point x="325" y="639"/>
      <point x="325" y="706" type="curve" smooth="yes"/>
      <point x="325" y="846" type="line" smooth="yes"/>
      <point x="325" y="914"/>
      <point x="270" y="968"/>
      <point x="203" y="968" type="curve" smooth="yes"/>
      <point x="202" y="968" type="line" smooth="yes"/>
      <point x="153" y="968"/>
      <point x="112" y="1009"/>
      <point x="112" y="1058" type="curve" smooth="yes"/>
      <point x="112" y="1110" type="line" smooth="yes"/>
      <point x="112" y="1160"/>
      <point x="153" y="1200"/>
      <point x="202" y="1200" type="curve" smooth="yes"/>
      <point x="203" y="1200" type="line" smooth="yes"/>
      <point x="252" y="1200"/>
      <point x="293" y="1160"/>
      <point x="293" y="1110" type="curve" smooth="yes"/>
      <point x="293" y="1058" type="line" smooth="yes"/>
      <point x="293" y="1011"/>
      <point x="257" y="973"/>
      <point x="212" y="969" type="curve" smooth="yes"/>
      <point x="204" y="968"/>
      <point x="197" y="960"/>
      <point x="198" y="951" type="curve" smooth="yes"/>
      <point x="199" y="943"/>
      <point x="207" y="936"/>
      <point x="216" y="937" type="curve" smooth="yes"/>
      <point x="277" y="943"/>
      <point x="325" y="995"/>
      <point x="325" y="1058" type="curve" smooth="yes"/>
      <point x="325" y="1110" type="line" smooth="yes"/>
      <point x="325" y="1178"/>
      <point x="270" y="1232"/>
      <point x="203" y="1232" type="curve" smooth="yes"/>
      <point x="202" y="1232" type="line" smooth="yes"/>
      <point x="135" y="1232"/>
      <point x="80" y="1178"/>
      <point x="80" y="1110" type="curve" smooth="yes"/>
      <point x="80" y="1058" type="line" smooth="yes"/>
      <point x="80" y="991"/>
      <point x="135" y="936"/>
      <point x="202" y="936" type="curve" smooth="yes"/>
      <point x="203" y="936" type="line" smooth="yes"/>
      <point x="252" y="936"/>
      <point x="293" y="896"/>
      <point x="293" y="846" type="curve" smooth="yes"/>
      <point x="293" y="706" type="line" smooth="yes"/>
      <point x="293" y="657"/>
      <point x="252" y="616"/>
      <point x="203" y="616" type="curve" smooth="yes"/>
      <point x="202" y="616" type="line" smooth="yes"/>
      <point x="153" y="616"/>
      <point x="112" y="657"/>
      <point x="112" y="706" type="curve" smooth="yes"/>
      <point x="112" y="846" type="line" smooth="yes"/>
      <point x="112" y="893"/>
      <point x="148" y="932"/>
    </contour>
  </outline>
</glyph>
<glyph name="integral" format="1">
  <advance width="364.0"/>
  <unicode hex="222B"/>
  <outline>
    <contour>
      <point x="308" y="1184" type="curve" smooth="yes"/>
      <point x="317" y="1184"/>
      <point x="324" y="1191"/>
      <point x="324" y="1200" type="curve" smooth="yes"/>
      <point x="324" y="1209"/>
      <point x="317" y="1216"/>
      <point x="308" y="1216" type="curve" smooth="yes"/>
      <point x="182" y="1216"/>
      <point x="80" y="1114"/>
      <point x="80" y="988" type="curve" smooth="yes"/>
      <point x="80" y="16" type="line" smooth="yes"/>
      <point x="80" y="-43"/>
      <point x="31" y="-92"/>
      <point x="-28" y="-92" type="curve" smooth="yes"/>
      <point x="-37" y="-92"/>
      <point x="-44" y="-99"/>
      <point x="-44" y="-108" type="curve" smooth="yes"/>
      <point x="-44" y="-117"/>
      <point x="-37" y="-124"/>
      <point x="-28" y="-124" type="curve" smooth="yes"/>
      <point x="49" y="-124"/>
      <point x="112" y="-61"/>
      <point x="112" y="16" type="curve" smooth="yes"/>
      <point x="112" y="988" type="line" smooth="yes"/>
      <point x="112" y="1096"/>
      <point x="200" y="1184"/>
    </contour>
  </outline>
</glyph>
<glyph name="notequal" format="1">
  <advance width="616.0"/>
  <unicode hex="2260"/>
  <outline>
    <contour>
      <point x="361" y="632" type="line" smooth="yes"/>
      <point x="362" y="640"/>
      <point x="355" y="649"/>
      <point x="348" y="651" type="curve" smooth="yes"/>
      <point x="338" y="652"/>
      <point x="330" y="645"/>
      <point x="329" y="638" type="curve"/>
      <point x="255" y="220" type="line" smooth="yes"/>
      <point x="254" y="212"/>
      <point x="259" y="203"/>
      <point x="268" y="201" type="curve" smooth="yes"/>
      <point x="276" y="200"/>
      <point x="286" y="207"/>
      <point x="287" y="214" type="curve"/>
    </contour>
    <component base="equal"/>
  </outline>
</glyph>
<glyph name="greaterequal" format="1">
  <advance width="616.0"/>
  <unicode hex="2265"/>
  <outline>
    <contour>
      <point x="106" y="778" type="line" smooth="yes"/>
      <point x="99" y="784"/>
      <point x="89" y="783"/>
      <point x="84" y="776" type="curve" smooth="yes"/>
      <point x="78" y="769"/>
      <point x="79" y="759"/>
      <point x="86" y="754" type="curve" smooth="yes"/>
      <point x="507" y="414" type="line"/>
      <point x="507" y="438" type="line"/>
      <point x="86" y="96" type="line" smooth="yes"/>
      <point x="79" y="91"/>
      <point x="78" y="81"/>
      <point x="84" y="74" type="curve" smooth="yes"/>
      <point x="89" y="67"/>
      <point x="99" y="66"/>
      <point x="106" y="72" type="curve" smooth="yes"/>
      <point x="527" y="414" type="line" smooth="yes"/>
      <point x="536" y="420"/>
      <point x="536" y="432"/>
      <point x="527" y="438" type="curve" smooth="yes"/>
    </contour>
    <contour>
      <point x="520" y="-16" type="line" smooth="yes"/>
      <point x="529" y="-16"/>
      <point x="536" y="-9"/>
      <point x="536" y="0" type="curve" smooth="yes"/>
      <point x="536" y="9"/>
      <point x="529" y="16"/>
      <point x="520" y="16" type="curve" smooth="yes"/>
      <point x="100" y="16" type="line" smooth="yes"/>
      <point x="91" y="16"/>
      <point x="84" y="9"/>
      <point x="84" y="0" type="curve" smooth="yes"/>
      <point x="84" y="-9"/>
      <point x="91" y="-16"/>
      <point x="100" y="-16" type="curve" smooth="yes"/>
    </contour>
  </outline>
</glyph>
<glyph name="uni24C5" format="1">
  <advance width="500"/>
  <unicode hex="24C5"/>
  <outline>
    <contour>
      <point x="171" y="246" type="line" smooth="yes"/>
      <point x="171" y="237"/>
      <point x="178" y="230"/>
      <point x="187" y="230" type="curve" smooth="yes"/>
      <point x="196" y="230"/>
      <point x="203" y="237"/>
      <point x="203" y="246" type="curve" smooth="yes"/>
      <point x="203" y="975" type="line"/>
      <point x="187" y="959" type="line"/>
      <point x="310" y="959" type="line" smooth="yes"/>
      <point x="368" y="959"/>
      <point x="416" y="911"/>
      <point x="416" y="853" type="curve" smooth="yes"/>
      <point x="416" y="723" type="line" smooth="yes"/>
      <point x="416" y="665"/>
      <point x="368" y="617"/>
      <point x="310" y="617" type="curve" smooth="yes"/>
      <point x="200" y="616" type="line" smooth="yes"/>
      <point x="191" y="616"/>
      <point x="184" y="608"/>
      <point x="184" y="600" type="curve" smooth="yes"/>
      <point x="184" y="591"/>
      <point x="192" y="584"/>
      <point x="200" y="584" type="curve" smooth="yes"/>
      <point x="310" y="585" type="line" smooth="yes"/>
      <point x="386" y="585"/>
      <point x="448" y="647"/>
      <point x="448" y="723" type="curve" smooth="yes"/>
      <point x="448" y="853" type="line" smooth="yes"/>
      <point x="448" y="929"/>
      <point x="386" y="991"/>
      <point x="310" y="991" type="curve" smooth="yes"/>
      <point x="187" y="991" type="line" smooth="yes"/>
      <point x="178" y="991"/>
      <point x="171" y="984"/>
      <point x="171" y="975" type="curve" smooth="yes"/>
    </contour>
    <component base="O"/>
  </outline>
</glyph>
<glyph name="nine.oldstyle" format="1">
  <advance width="616.0"/>
  <unicode hex="F739"/>
  <outline>
    <contour>
      <point x="112" y="-168" type="curve" smooth="yes"/>
      <point x="112" y="-159"/>
      <point x="105" y="-152"/>
      <point x="96" y="-152" type="curve" smooth="yes"/>
      <point x="87" y="-152"/>
      <point x="80" y="-159"/>
      <point x="80" y="-168" type="curve" smooth="yes"/>
      <point x="80" y="-294"/>
      <point x="183" y="-396"/>
      <point x="308" y="-396" type="curve" smooth="yes"/>
      <point x="434" y="-396"/>
      <point x="536" y="-294"/>
      <point x="536" y="-168" type="curve" smooth="yes"/>
      <point x="536" y="640" type="line" smooth="yes"/>
      <point x="536" y="765"/>
      <point x="434" y="868"/>
      <point x="308" y="868" type="curve" smooth="yes"/>
      <point x="183" y="868"/>
      <point x="80" y="765"/>
      <point x="80" y="640" type="curve" smooth="yes"/>
      <point x="80" y="212" type="line" smooth="yes"/>
      <point x="80" y="86"/>
      <point x="183" y="-16"/>
      <point x="308" y="-16" type="curve" smooth="yes"/>
      <point x="419" y="-16"/>
      <point x="511" y="64"/>
      <point x="532" y="169" type="curve" smooth="yes"/>
      <point x="533" y="177"/>
      <point x="528" y="186"/>
      <point x="519" y="188" type="curve" smooth="yes"/>
      <point x="511" y="189"/>
      <point x="502" y="184"/>
      <point x="500" y="175" type="curve" smooth="yes"/>
      <point x="483" y="84"/>
      <point x="403" y="16"/>
      <point x="308" y="16" type="curve" smooth="yes"/>
      <point x="201" y="16"/>
      <point x="112" y="104"/>
      <point x="112" y="212" type="curve" smooth="yes"/>
      <point x="112" y="640" type="line" smooth="yes"/>
      <point x="112" y="747"/>
      <point x="201" y="836"/>
      <point x="308" y="836" type="curve" smooth="yes"/>
      <point x="416" y="836"/>
      <point x="504" y="747"/>
      <point x="504" y="640" type="curve" smooth="yes"/>
      <point x="504" y="-168" type="line" smooth="yes"/>
      <point x="504" y="-276"/>
      <point x="416" y="-364"/>
      <point x="308" y="-364" type="curve" smooth="yes"/>
      <point x="201" y="-364"/>
      <point x="112" y="-276"/>
    </contour>
  </outline>
</glyph>
<glyph name="apple" format="1">
  <advance width="1024"/>
  <unicode hex="F8FF"/>
  <outline>
    <contour>
      <point x="858" y="1088" type="line" smooth="yes"/>
      <point x="875" y="1088"/>
      <point x="890" y="1103"/>
      <point x="890" y="1120" type="curve" smooth="yes"/>
      <point x="890" y="1137"/>
      <point x="875" y="1152"/>
      <point x="858" y="1152" type="curve" smooth="yes"/>
      <point x="503" y="1152" type="line" smooth="yes"/>
      <point x="486" y="1152"/>
      <point x="471" y="1137"/>
      <point x="471" y="1120" type="curve" smooth="yes"/>
      <point x="471" y="1103"/>
      <point x="486" y="1088"/>
      <point x="503" y="1088" type="curve" smooth="yes"/>
    </contour>
    <contour>
      <point x="196" y="2" type="line" smooth="yes"/>
      <point x="137" y="2"/>
      <point x="96" y="43"/>
      <point x="96" y="102" type="curve" smooth="yes"/>
      <point x="96" y="833" type="line" smooth="yes"/>
      <point x="96" y="910"/>
      <point x="96" y="973"/>
      <point x="167" y="1004" type="curve" smooth="yes"/>
      <point x="292" y="1059" type="line" smooth="yes"/>
      <point x="363" y="1090"/>
      <point x="386" y="1200"/>
      <point x="463" y="1200" type="curve" smooth="yes"/>
      <point x="898" y="1200" type="line" smooth="yes"/>
      <point x="957" y="1200"/>
      <point x="998" y="1159"/>
      <point x="998" y="1100" type="curve" smooth="yes"/>
      <point x="998" y="100" type="line" smooth="yes"/>
      <point x="998" y="41"/>
      <point x="957" y="0"/>
      <point x="898" y="0" type="curve" smooth="yes"/>
    </contour>
    <contour>
      <point x="850" y="150" type="curve" smooth="yes"/>
      <point x="862" y="163"/>
      <point x="862" y="183"/>
      <point x="850" y="196" type="curve" smooth="yes"/>
      <point x="593" y="453" type="line"/>
      <point x="850" y="710" type="line" smooth="yes"/>
      <point x="862" y="723"/>
      <point x="862" y="743"/>
      <point x="850" y="756" type="curve" smooth="yes"/>
      <point x="837" y="768"/>
      <point x="817" y="768"/>
      <point x="804" y="756" type="curve" smooth="yes"/>
      <point x="547" y="499" type="line"/>
      <point x="290" y="756" type="line" smooth="yes"/>
      <point x="277" y="768"/>
      <point x="257" y="768"/>
      <point x="244" y="756" type="curve" smooth="yes"/>
      <point x="232" y="743"/>
      <point x="232" y="723"/>
      <point x="244" y="710" type="curve" smooth="yes"/>
      <point x="501" y="453" type="line"/>
      <point x="244" y="196" type="line" smooth="yes"/>
      <point x="232" y="183"/>
      <point x="232" y="163"/>
      <point x="244" y="150" type="curve" smooth="yes"/>
      <point x="257" y="138"/>
      <point x="277" y="138"/>
      <point x="290" y="150" type="curve" smooth="yes"/>
      <point x="547" y="407" type="line"/>
      <point x="804" y="150" type="line" smooth="yes"/>
      <point x="817" y="138"/>
      <point x="837" y="138"/>
    </contour>
    <contour>
      <point x="285" y="1090" type="line"/>
      <point x="301" y="1096"/>
      <point x="308" y="1116"/>
      <point x="301" y="1132" type="curve" smooth="yes"/>
      <point x="295" y="1148"/>
      <point x="275" y="1155"/>
      <point x="259" y="1148" type="curve" smooth="yes"/>
      <point x="134" y="1093" type="line" smooth="yes"/>
      <point x="118" y="1087"/>
      <point x="111" y="1067"/>
      <point x="118" y="1051" type="curve" smooth="yes"/>
      <point x="124" y="1035"/>
      <point x="144" y="1028"/>
      <point x="160" y="1035" type="curve" smooth="yes"/>
      <point x="285" y="1090" type="line"/>
    </contour>
  </outline>
</glyph>
